<svg width="440" height="440" viewBox="0 0 440 440" fill="none" xmlns="http://www.w3.org/2000/svg">
<path fill-rule="evenodd" clip-rule="evenodd" d="M206.165 34.6204C206.388 39.4374 204.738 42.2027 201.571 42.3365C198.805 42.4703 196.798 39.9726 196.531 35.2448C196.308 30.4725 198.226 27.7517 201.125 27.6179C204.113 27.4841 205.942 30.071 206.165 34.6204ZM198.449 35.2002C198.627 38.9022 199.876 40.9539 201.615 40.8647C203.578 40.7755 204.425 38.4116 204.247 34.7988C204.069 31.3199 203.087 29.0452 201.08 29.1344C199.385 29.2236 198.27 31.3199 198.449 35.2002ZM186.54 32.2565L188.904 30.6508L190.287 43.0055L192.115 42.7825L190.554 28.6438L188.904 28.8222L186.005 30.8292L186.54 32.2565ZM183.373 36.5383C184.176 41.3107 182.883 44.2544 179.761 44.7896C177.04 45.2802 174.721 43.0055 173.873 38.367C173.07 33.6838 174.631 30.7401 177.486 30.2494C180.474 29.7142 182.57 32.0781 183.373 36.5383ZM175.791 38.0547C176.415 41.7121 177.887 43.5854 179.627 43.2732C181.589 42.9609 182.124 40.5078 181.5 36.9397C180.92 33.5054 179.627 31.3645 177.664 31.7213C175.969 31.9889 175.122 34.219 175.791 38.0547ZM163.57 36.5829L165.711 34.7096L168.521 46.8413L170.35 46.3953L167.094 32.5687L165.488 32.9255L162.856 35.2448L163.57 36.5829ZM160.894 41.2215C162.277 45.8601 161.34 48.9376 158.307 49.8296C155.631 50.6324 153.089 48.67 151.706 44.1652C150.323 39.6158 151.528 36.4937 154.293 35.6462C157.192 34.7988 159.6 36.8951 160.894 41.2215ZM153.579 43.6746C154.65 47.1981 156.345 48.893 158.039 48.4024C159.913 47.8225 160.18 45.3694 159.11 41.8905C158.084 38.5454 156.568 36.5829 154.65 37.1627C153.044 37.6087 152.464 39.928 153.579 43.6746ZM141.314 43.7192L143.232 41.5782L147.558 53.2639L149.298 52.5949L144.347 39.259L142.786 39.8388L140.466 42.4703L141.314 43.7192ZM139.217 48.6254C141.18 53.0409 140.6 56.2076 137.746 57.5011C135.203 58.6161 132.438 57.0105 130.476 52.7287C128.558 48.3577 129.36 45.1464 131.992 43.9422C134.757 42.7379 137.389 44.4774 139.217 48.6254ZM132.26 51.9259C133.776 55.3156 135.649 56.7875 137.255 56.0738C139.039 55.271 138.994 52.7733 137.523 49.4728C136.095 46.2614 134.356 44.522 132.527 45.3248C130.966 46.0384 130.699 48.4023 132.26 51.9259ZM120.083 53.5316L121.689 51.1677L127.443 62.2289L129.093 61.3815L122.581 48.7592L121.109 49.5174L119.102 52.4165L120.083 53.5316ZM118.656 58.6162C121.154 62.7641 120.975 65.9755 118.255 67.5811C115.846 69.0084 112.902 67.7149 110.449 63.7008C107.996 59.5974 108.442 56.2969 110.895 54.825C113.482 53.3085 116.337 54.6912 118.656 58.6162ZM112.1 62.7641C114.018 65.9308 116.069 67.1797 117.541 66.2431C119.236 65.2172 118.879 62.7641 117.006 59.642C115.222 56.6537 113.259 55.1372 111.564 56.1631C110.137 57.0105 110.137 59.419 112.1 62.7641ZM100.236 65.7971L101.574 63.2547L108.576 73.5577L110.093 72.4873L102.064 60.757L100.726 61.6937L99.1205 64.8158L100.236 65.7971ZM99.4327 71.0155C102.376 74.8512 102.599 78.0626 100.146 79.9804C97.9608 81.6753 94.8833 80.7833 91.9396 77.0813C88.9959 73.2902 89.0405 69.9896 91.3152 68.2056C93.6344 66.3769 96.6228 67.4473 99.4327 71.0155ZM93.4561 75.9217C95.7308 78.8654 97.9162 79.802 99.2989 78.7316C100.86 77.5273 100.191 75.1188 97.9608 72.2643C95.8199 69.499 93.6791 68.2501 92.118 69.4544C90.78 70.4802 91.0922 72.8887 93.4561 75.9217ZM81.9934 80.3818L83.0193 77.7057L91.2706 87.1167L92.6532 85.8679L83.2423 75.1634L81.9934 76.2339L80.7446 79.5344L81.9934 80.3818ZM81.815 85.734C85.2047 89.1683 85.8292 92.3351 83.5991 94.5652C81.6366 96.5277 78.4699 95.9924 75.1247 92.6919C71.7796 89.3022 71.3782 86.0016 73.4299 83.9499C75.5261 81.809 78.6037 82.5227 81.815 85.734ZM76.4628 91.3092C79.0497 93.9407 81.369 94.6098 82.6178 93.4055C84.0005 92.0229 83.0639 89.7036 80.5216 87.1613C78.0685 84.6636 75.7937 83.6823 74.3665 85.065C73.1622 86.2692 73.7421 88.5885 76.4628 91.3092ZM65.7138 97.0629L66.3828 94.2976L75.7045 102.594L76.9534 101.211L66.3382 91.7107L65.2231 92.9149L64.3757 96.3493L65.7138 97.0629ZM66.1151 102.415C69.9063 105.403 70.8876 108.481 68.9251 110.934C67.1856 113.12 63.9743 112.986 60.2723 110.087C56.5258 107.143 55.7229 103.887 57.5516 101.612C59.4249 99.293 62.5916 99.6052 66.1151 102.415ZM61.5212 108.615C64.4203 110.889 66.7842 111.335 67.8546 109.953C69.0589 108.392 67.8546 106.251 65.0001 103.976C62.2348 101.791 59.8709 101.077 58.6667 102.638C57.6408 103.976 58.4882 106.206 61.5212 108.615ZM51.4858 115.617L51.8426 112.807L62.0118 119.854L63.0822 118.338L51.3965 110.22L50.4599 111.558L50.0585 115.082L51.4858 115.617ZM52.6008 120.836C56.7488 123.333 58.0868 126.277 56.4366 128.953C55.0093 131.317 51.798 131.585 47.7392 129.176C43.6804 126.678 42.4762 123.556 43.9926 121.103C45.5537 118.561 48.7204 118.472 52.6008 120.836ZM48.765 127.571C51.9318 129.488 54.2957 129.622 55.2323 128.106C56.2581 126.411 54.7863 124.404 51.6642 122.531C48.6758 120.702 46.2227 120.3 45.1969 121.995C44.3495 123.423 45.4645 125.563 48.765 127.571ZM39.6663 135.777L39.6663 132.923L50.683 138.721L51.5304 137.071L38.9527 130.425L38.1945 131.897L38.1945 135.42L39.6663 135.777ZM41.3611 140.862C45.7767 142.869 47.4716 145.59 46.1782 148.444C45.0185 150.986 41.8964 151.611 37.57 149.738C33.199 147.775 31.6826 144.831 32.8422 142.2C34.0911 139.479 37.2578 138.989 41.3611 140.862ZM38.4174 147.998C41.8072 149.515 44.1711 149.336 44.8847 147.731C45.6875 145.946 43.9926 144.118 40.6921 142.646C37.4808 141.219 35.0277 141.085 34.2248 142.914C33.5112 144.43 34.8493 146.392 38.4174 147.998ZM30.3891 157.231L30.0323 154.421L41.6288 158.836L42.2978 157.097L29.0065 152.057L28.4266 153.573L28.8726 157.052L30.3891 157.231ZM32.7084 162.048C37.347 163.475 39.3541 165.973 38.4174 169.006C37.6146 171.682 34.5371 172.708 30.0323 171.325C25.4829 169.898 23.565 167.177 24.4125 164.412C25.3491 161.512 28.382 160.71 32.7084 162.048ZM30.6567 169.496C34.1802 170.611 36.5442 170.121 37.0348 168.47C37.6146 166.597 35.6967 164.991 32.2178 163.921C28.8726 162.895 26.4195 163.074 25.8397 164.947C25.3491 166.552 26.9548 168.337 30.6567 169.496ZM23.8326 179.665L23.119 176.9L35.2061 179.844L35.6521 178.015L21.8256 174.625L21.4242 176.231L22.3162 179.665H23.8326ZM26.7318 184.126C31.5041 184.973 33.8235 187.248 33.2436 190.325C32.753 193.046 29.8539 194.473 25.2153 193.67C20.5321 192.823 18.302 190.325 18.7926 187.471C19.3279 184.527 22.2716 183.323 26.7318 184.126ZM25.5721 191.797C29.2295 192.466 31.5042 191.708 31.8164 189.968C32.1732 188.051 30.0769 186.713 26.5087 186.043C23.0744 185.419 20.6213 185.91 20.2645 187.872C19.9077 189.522 21.7364 191.083 25.5721 191.797ZM19.9969 202.725L18.9711 200.048L31.2812 201.431L31.5042 199.602L17.3654 197.952L17.187 199.602L18.4805 202.903L19.9969 202.725ZM23.4313 206.828C28.2483 207.095 30.8352 209.058 30.6567 212.18C30.5229 214.945 27.8022 216.685 23.0744 216.462C18.302 216.194 15.8044 214.009 15.9828 211.11C16.1612 208.121 18.9265 206.56 23.4313 206.828ZM23.2083 214.544C26.9102 214.767 29.0511 213.741 29.1403 212.002C29.2295 210.039 26.9994 208.969 23.3867 208.746C19.9077 208.567 17.5438 209.326 17.4546 211.288C17.3654 212.983 19.3725 214.321 23.2083 214.544ZM19.1049 226.23L17.7222 223.732L30.1661 223.554L30.1215 221.68L15.8936 221.903L15.9381 223.554L17.633 226.631L19.1049 226.23ZM22.9406 229.709C27.7576 229.396 30.5675 231.002 30.7459 234.169C30.9243 236.934 28.4266 238.986 23.7434 239.343C18.971 239.655 16.2057 237.737 16.0273 234.882C15.8489 231.894 18.4358 230.021 22.9406 229.709ZM23.6543 237.425C27.3562 237.202 29.3633 235.908 29.2741 234.169C29.1403 232.206 26.7764 231.403 23.1636 231.626C19.6847 231.849 17.41 232.875 17.5438 234.882C17.633 236.577 19.7739 237.692 23.6543 237.425ZM20.889 249.333L19.2387 247.014L31.5488 245.408L31.3258 243.58L17.187 245.319L17.41 246.97L19.4617 249.869L20.889 249.333ZM25.2153 252.5C29.9877 251.608 32.9314 252.902 33.5113 255.979C34.0465 258.7 31.8164 261.064 27.1778 261.956C22.4946 262.848 19.5063 261.287 18.9711 258.477C18.4359 255.488 20.7552 253.348 25.2153 252.5ZM26.821 260.038C30.4783 259.369 32.307 257.852 31.9948 256.113C31.638 254.195 29.1849 253.66 25.6167 254.329C22.1824 254.953 20.0861 256.291 20.4429 258.254C20.7998 259.949 23.0298 260.796 26.821 260.038ZM25.5722 272.214L23.6543 270.118L35.7414 266.996L35.2953 265.212L21.4688 268.691L21.8702 270.296L24.2341 272.928L25.5722 272.214ZM30.2107 274.846C34.8047 273.374 37.9268 274.266 38.8635 277.299C39.7109 279.93 37.793 282.517 33.3328 283.989C28.7835 285.416 25.6614 284.257 24.7693 281.536C23.8773 278.637 25.8843 276.228 30.2107 274.846ZM32.753 282.116C36.2766 281.001 37.9268 279.261 37.3916 277.611C36.8118 275.738 34.3141 275.515 30.8797 276.63C27.5346 277.7 25.6167 279.261 26.2412 281.135C26.7318 282.74 29.0957 283.32 32.753 282.116ZM32.976 294.381L30.8352 292.508L42.387 288.048L41.718 286.308L28.4713 291.437L29.0511 292.954L31.7272 295.273L32.976 294.381ZM37.9268 296.433C42.3424 294.426 45.5091 294.916 46.8026 297.771C47.9622 300.313 46.4012 303.079 42.1194 305.086C37.793 307.093 34.5371 306.335 33.3328 303.703C32.1286 301.027 33.8235 298.351 37.9268 296.433ZM41.3612 303.391C44.7063 301.83 46.1336 299.912 45.4199 298.351C44.5725 296.567 42.1194 296.656 38.8189 298.172C35.6521 299.644 33.9127 301.428 34.7601 303.212C35.4737 304.729 37.8376 304.996 41.3612 303.391ZM43.1006 315.522L40.7367 313.917L51.7088 308.074L50.8167 306.424L38.2836 313.159L39.0419 314.586L41.9856 316.548L43.1006 315.522ZM48.2299 316.86C52.3332 314.318 55.5446 314.452 57.2394 317.128C58.7113 319.492 57.4624 322.48 53.4929 324.978C49.4341 327.476 46.1336 327.119 44.6171 324.666C43.0115 322.079 44.3941 319.224 48.2299 316.86ZM52.467 323.328C55.6338 321.365 56.7934 319.314 55.9014 317.842C54.8755 316.147 52.4224 316.593 49.3449 318.466C46.3566 320.295 44.8847 322.257 45.9106 323.952C46.8026 325.379 49.1665 325.335 52.467 323.328ZM55.6337 335.147L53.0914 333.854L63.2606 326.673L62.1902 325.156L50.5491 333.363L51.4858 334.701L54.6525 336.307L55.6337 335.147ZM60.9414 335.95C64.7325 332.917 67.9439 332.65 69.9063 335.103C71.6458 337.288 70.7984 340.366 67.141 343.354C63.3945 346.342 60.0939 346.387 58.2653 344.112C56.392 341.748 57.4178 338.76 60.9414 335.95ZM65.9814 341.837C68.8805 339.518 69.8172 337.333 68.7021 335.95C67.4533 334.389 65.0894 335.103 62.2348 337.377C59.5141 339.563 58.2653 341.704 59.5141 343.265C60.54 344.558 62.9485 344.246 65.9814 341.837ZM70.5307 353.166L67.8546 352.185L77.0872 343.845L75.8383 342.462L65.2677 352.007L66.3828 353.211L69.6833 354.415L70.5307 353.166ZM75.8829 353.3C79.2727 349.821 82.4394 349.197 84.6695 351.382C86.6766 353.345 86.1859 356.511 82.93 359.901C79.5849 363.291 76.2843 363.737 74.2327 361.73C72.0472 359.634 72.7162 356.512 75.8829 353.3ZM81.5474 358.519C84.1343 355.887 84.8033 353.568 83.5545 352.364C82.1272 350.981 79.8525 351.962 77.3102 354.549C74.8571 357.047 73.8759 359.321 75.3031 360.704C76.5074 361.908 78.8267 361.284 81.5474 358.519ZM87.4794 369.268L84.7141 368.643L92.8762 359.232L91.449 358.028L82.1272 368.777L83.3761 369.847L86.8104 370.606L87.4794 369.268ZM92.787 368.688C95.7308 364.852 98.7637 363.826 101.261 365.744C103.447 367.439 103.358 370.65 100.548 374.397C97.6486 378.188 94.4373 379.035 92.118 377.251C89.7541 375.467 90.0217 372.301 92.787 368.688ZM99.0313 373.237C101.261 370.293 101.663 367.93 100.28 366.859C98.7191 365.655 96.5782 366.904 94.3481 369.803C92.2072 372.568 91.5382 374.932 93.0992 376.181C94.4819 377.207 96.712 376.315 99.0313 373.237ZM106.257 383.183L103.402 382.871L110.36 372.523L108.799 371.498L100.86 383.317L102.243 384.254L105.766 384.611L106.257 383.183ZM111.475 381.979C113.928 377.787 116.827 376.404 119.548 378.01C121.957 379.437 122.224 382.604 119.905 386.707C117.496 390.81 114.374 392.059 111.877 390.587C109.29 389.071 109.156 385.904 111.475 381.979ZM118.255 385.726C120.128 382.514 120.217 380.15 118.701 379.258C117.006 378.277 115.043 379.749 113.17 382.916C111.386 385.949 110.985 388.357 112.724 389.383C114.151 390.23 116.248 389.071 118.255 385.726ZM126.595 394.691L123.741 394.735L129.361 383.674L127.71 382.827L121.288 395.493L122.759 396.252L126.283 396.163L126.595 394.691ZM131.591 392.907C133.508 388.446 136.229 386.707 139.128 388C141.671 389.115 142.384 392.238 140.556 396.609C138.638 400.979 135.739 402.585 133.062 401.426C130.297 400.177 129.762 397.055 131.591 392.907ZM138.771 395.761C140.243 392.371 140.02 389.963 138.415 389.294C136.586 388.491 134.847 390.23 133.375 393.576C131.992 396.787 131.903 399.24 133.731 400.043C135.293 400.712 137.21 399.329 138.771 395.761ZM148.138 403.656L145.328 404.057L149.565 392.327L147.826 391.702L142.964 405.083L144.525 405.663L148.004 405.172L148.138 403.656ZM152.955 401.247C154.337 396.608 156.791 394.557 159.824 395.449C162.5 396.252 163.57 399.285 162.277 403.789C160.939 408.383 158.218 410.301 155.453 409.498C152.553 408.651 151.661 405.573 152.955 401.247ZM160.403 403.21C161.429 399.641 160.939 397.322 159.288 396.832C157.415 396.296 155.854 398.214 154.828 401.693C153.847 405.038 154.07 407.491 155.943 408.071C157.549 408.562 159.333 406.956 160.403 403.21ZM170.662 409.9L167.896 410.658L170.706 398.526L168.878 398.125L165.711 411.996L167.317 412.353L170.706 411.416L170.662 409.9ZM175.122 406.956C175.925 402.184 178.11 399.82 181.232 400.355C183.953 400.801 185.425 403.7 184.667 408.339C183.909 413.067 181.411 415.297 178.556 414.851C175.657 414.315 174.408 411.416 175.122 406.956ZM182.793 407.982C183.418 404.325 182.615 402.05 180.876 401.782C178.913 401.47 177.62 403.566 177.04 407.179C176.46 410.658 176.995 413.067 178.958 413.379C180.608 413.646 182.169 411.818 182.793 407.982ZM193.81 413.334L191.179 414.405L192.383 402.05L190.554 401.871L189.127 416.01L190.777 416.189L194.033 414.851L193.81 413.334ZM197.824 409.855C198.047 405.038 199.921 402.407 203.087 402.541C205.853 402.674 207.637 405.35 207.503 410.034C207.324 414.806 205.139 417.348 202.24 417.215C199.251 417.125 197.646 414.405 197.824 409.855ZM205.585 409.989C205.719 406.287 204.693 404.146 202.953 404.057C200.991 403.968 199.965 406.242 199.787 409.855C199.653 413.379 200.456 415.698 202.418 415.787C204.113 415.832 205.407 413.825 205.585 409.989ZM216.597 414.257L217.137 413.958L217.538 415.43L214.461 417.17L212.81 417.214L212.809 417.134L212.505 417.125L212.643 408.325L212.543 402.986L212.727 402.982L212.728 402.897L214.602 402.942L214.509 408.107L214.638 415.254L216.597 414.257ZM212.323 36.7252L212.195 29.5784L210.235 30.5755L209.695 30.8741L209.294 29.4022L212.372 27.6627L214.022 27.6181L214.023 27.6989L214.327 27.7071L214.189 36.5071L214.289 41.8461L214.105 41.8505L214.104 41.9351L212.231 41.8905L212.323 36.7252ZM229.008 34.9773C228.785 39.7943 226.912 42.4258 223.745 42.292C220.98 42.1582 219.196 39.4821 219.329 34.7989C219.508 30.0265 221.693 27.4842 224.592 27.618C227.581 27.7072 229.186 30.4279 229.008 34.9773ZM221.247 34.8435C221.113 38.5455 222.139 40.6864 223.879 40.7756C225.841 40.8648 226.867 38.5901 227.045 34.9773C227.179 31.4538 226.376 29.1345 224.414 29.0453C222.719 29.0007 221.426 31.0078 221.247 34.8435ZM233.022 31.4984L235.654 30.4279L234.449 42.7826L236.278 42.9611L237.705 28.8223L236.055 28.6439L232.799 29.9819L233.022 31.4984ZM251.71 37.8764C250.907 42.6488 248.722 45.0127 245.6 44.4775C242.879 44.0315 241.407 41.1324 242.165 36.4938C242.924 31.766 245.421 29.5359 248.276 29.9819C251.175 30.5171 252.424 33.4163 251.71 37.8764ZM244.039 36.8506C243.414 40.5079 244.217 42.7826 245.957 43.0503C247.919 43.3625 249.213 41.2662 249.792 37.6534C250.372 34.1745 249.837 31.766 247.874 31.4538C246.224 31.1862 244.663 33.0148 244.039 36.8506ZM256.17 34.9327L258.936 34.1745L256.126 46.3062L257.954 46.7076L261.121 32.8364L259.516 32.4796L256.126 33.4163L256.17 34.9327ZM273.877 43.5855C272.495 48.2241 270.042 50.2757 267.009 49.3837C264.333 48.5809 263.262 45.548 264.556 41.0432C265.894 36.4492 268.614 34.5313 271.38 35.3341C274.279 36.1816 275.171 39.2591 273.877 43.5855ZM266.429 41.623C265.403 45.1911 265.894 47.5104 267.544 48.0011C269.417 48.5363 270.978 46.6184 272.004 43.1395C272.985 39.7943 272.762 37.3412 270.889 36.7614C269.283 36.2708 267.499 37.8765 266.429 41.623ZM278.694 41.177L281.504 40.7755L277.267 52.5058L279.007 53.1302L283.868 39.7497L282.307 39.1699L278.828 39.6605L278.694 41.177ZM295.242 51.926C293.324 56.3862 290.603 58.1256 287.704 56.8322C285.162 55.7171 284.448 52.595 286.277 48.224C288.195 43.8531 291.094 42.2474 293.77 43.4071C296.535 44.6559 297.07 47.778 295.242 51.926ZM288.061 49.0715C286.589 52.4612 286.812 54.8697 288.418 55.5387C290.246 56.3416 291.986 54.6021 293.458 51.257C294.84 48.0456 294.929 45.5925 293.101 44.7897C291.54 44.1207 289.622 45.5033 288.061 49.0715ZM300.237 50.1419L303.091 50.0973L297.472 61.1586L299.122 62.006L305.545 49.3391L304.073 48.5809L300.549 48.6701L300.237 50.1419ZM315.357 62.8534C312.904 67.046 310.005 68.4287 307.284 66.823C304.876 65.3957 304.608 62.229 306.927 58.1256C309.336 54.0223 312.458 52.7734 314.956 54.2453C317.543 55.7617 317.676 58.9285 315.357 62.8534ZM308.578 59.1069C306.704 62.3182 306.615 64.6821 308.132 65.5741C309.826 66.5554 311.789 65.0835 313.662 61.9168C315.446 58.8839 315.848 56.4754 314.108 55.4495C312.681 54.6021 310.585 55.7617 308.578 59.1069ZM320.575 61.6492L323.43 61.9614L316.472 72.309L318.033 73.3349L325.972 61.5154L324.59 60.5788L321.066 60.222L320.575 61.6492ZM334.045 76.1448C331.101 79.9806 328.069 81.0064 325.571 79.0885C323.385 77.3936 323.475 74.1823 326.284 70.4358C329.184 66.6446 332.395 65.7972 334.714 67.5813C337.078 69.3653 336.81 72.5321 334.045 76.1448ZM327.801 71.5954C325.571 74.5391 325.169 76.903 326.552 77.9735C328.113 79.1777 330.254 77.9289 332.484 75.0298C334.625 72.2644 335.294 69.9005 333.733 68.6517C332.35 67.6259 330.12 68.5179 327.801 71.5954ZM339.353 75.5649L342.118 76.1894L333.956 85.6003L335.383 86.8046L344.705 76.0556L343.456 74.9851L340.022 74.2269L339.353 75.5649ZM350.949 91.5324C347.56 95.0113 344.393 95.6358 342.163 93.4503C340.156 91.4878 340.646 88.3211 343.902 84.9313C347.247 81.5416 350.548 81.0956 352.6 83.1027C354.785 85.1989 354.116 88.3211 350.949 91.5324ZM345.285 86.314C342.698 88.9455 342.029 91.2648 343.278 92.469C344.705 93.8517 346.98 92.8705 349.522 90.2836C351.975 87.7859 352.956 85.5112 351.529 84.1285C350.325 82.9243 348.006 83.5487 345.285 86.314ZM356.301 91.6662L358.978 92.6474L349.745 100.988L350.994 102.371L361.564 92.8259L360.449 91.6216L357.149 90.4174L356.301 91.6662ZM365.891 108.882C362.1 111.915 358.888 112.183 356.926 109.73C355.186 107.544 356.034 104.467 359.691 101.479C363.438 98.4903 366.738 98.4457 368.567 100.72C370.44 103.084 369.414 106.073 365.891 108.882ZM360.851 102.995C357.952 105.314 357.015 107.5 358.13 108.882C359.379 110.444 361.743 109.73 364.597 107.455C367.318 105.27 368.567 103.129 367.318 101.568C366.292 100.274 363.884 100.587 360.851 102.995ZM371.198 109.685L373.741 110.979L363.572 118.16L364.642 119.676L376.283 111.469L375.346 110.131L372.18 108.526L371.198 109.685ZM378.602 127.972C374.499 130.514 371.288 130.381 369.593 127.704C368.121 125.341 369.37 122.352 373.339 119.855C377.398 117.357 380.699 117.714 382.215 120.167C383.821 122.754 382.438 125.608 378.602 127.972ZM374.365 121.505C371.198 123.467 370.039 125.519 370.931 126.991C371.957 128.686 374.41 128.24 377.487 126.366C380.476 124.538 381.947 122.575 380.922 120.88C380.03 119.453 377.666 119.498 374.365 121.505ZM383.732 129.31L386.095 130.916L375.123 136.759L376.015 138.409L388.549 131.674L387.79 130.247L384.847 128.284L383.732 129.31ZM388.905 148.4C384.49 150.407 381.323 149.916 380.03 147.062C378.87 144.519 380.431 141.754 384.713 139.747C389.039 137.74 392.295 138.498 393.499 141.13C394.704 143.806 393.009 146.482 388.905 148.4ZM385.471 141.442C382.126 143.003 380.699 144.921 381.412 146.482C382.26 148.266 384.713 148.177 388.013 146.66C391.18 145.188 392.92 143.404 392.072 141.62C391.358 140.104 388.995 139.836 385.471 141.442ZM393.856 150.451L395.997 152.325L384.445 156.785L385.114 158.524L398.361 153.395L397.781 151.879L395.105 149.559L393.856 150.451ZM396.621 169.987C392.027 171.459 388.905 170.567 387.969 167.534C387.121 164.902 389.039 162.315 393.499 160.844C398.049 159.416 401.171 160.576 402.063 163.297C402.955 166.196 400.948 168.604 396.621 169.987ZM394.079 162.717C390.556 163.832 388.905 165.571 389.441 167.222C390.02 169.095 392.518 169.318 395.952 168.203C399.298 167.132 401.215 165.571 400.591 163.698C400.1 162.092 397.737 161.513 394.079 162.717ZM401.26 172.618L403.178 174.715L391.091 177.837L391.537 179.621L405.363 176.142L404.962 174.536L402.598 171.905L401.26 172.618ZM401.617 192.332C396.844 193.224 393.901 191.931 393.321 188.854C392.786 186.133 395.016 183.769 399.654 182.877C404.338 181.985 407.326 183.546 407.861 186.356C408.396 189.344 406.077 191.485 401.617 192.332ZM400.011 184.795C396.354 185.464 394.525 186.98 394.837 188.72C395.194 190.638 397.647 191.173 401.215 190.504C404.65 189.879 406.746 188.541 406.389 186.579C406.032 184.884 403.802 184.037 400.011 184.795ZM405.943 195.499L407.594 197.818L395.283 199.424L395.506 201.253L409.645 199.513L409.422 197.863L407.37 194.964L405.943 195.499ZM403.892 215.124C399.075 215.436 396.265 213.831 396.086 210.664C395.908 207.898 398.406 205.847 403.089 205.49C407.861 205.178 410.626 207.096 410.805 209.95C410.983 212.939 408.396 214.812 403.892 215.124ZM403.178 207.408C399.476 207.631 397.469 208.924 397.558 210.664C397.692 212.626 400.056 213.429 403.669 213.206C407.148 212.983 409.422 211.957 409.288 209.95C409.199 208.255 407.058 207.14 403.178 207.408ZM407.727 218.603L409.11 221.101L396.666 221.279L396.711 223.152L410.939 222.929L410.894 221.279L409.199 218.201L407.727 218.603ZM403.401 238.005C398.584 237.737 395.997 235.775 396.175 232.652C396.309 229.887 399.03 228.148 403.758 228.371C408.53 228.638 411.028 230.824 410.849 233.723C410.671 236.711 407.906 238.272 403.401 238.005ZM403.624 230.289C399.922 230.066 397.781 231.091 397.692 232.831C397.603 234.793 399.833 235.864 403.446 236.087C406.924 236.265 409.288 235.507 409.378 233.545C409.467 231.85 407.46 230.512 403.624 230.289ZM406.835 242.108L407.861 244.784L395.551 243.401L395.328 245.23L409.467 246.88L409.645 245.23L408.352 241.93L406.835 242.108ZM393.589 254.507C394.079 251.787 396.978 250.359 401.617 251.162C406.3 252.01 408.53 254.507 408.04 257.362C407.504 260.306 404.561 261.51 400.1 260.707C395.328 259.86 393.009 257.585 393.589 254.507ZM401.26 253.035C397.603 252.366 395.328 253.125 395.016 254.864C394.659 256.782 396.755 258.12 400.323 258.789C403.758 259.414 406.211 258.923 406.568 256.96C406.924 255.31 405.096 253.749 401.26 253.035ZM403 265.167L403.713 267.932L391.626 264.989L391.18 266.817L405.007 270.207L405.408 268.602L404.516 265.167H403ZM394.124 282.785C389.485 281.358 387.478 278.86 388.415 275.827C389.218 273.151 392.295 272.125 396.8 273.508C401.349 274.935 403.267 277.656 402.42 280.421C401.483 283.32 398.45 284.123 394.124 282.785ZM396.175 275.336C392.652 274.221 390.288 274.712 389.797 276.362C389.218 278.236 391.135 279.841 394.614 280.912C397.96 281.937 400.413 281.759 400.992 279.886C401.483 278.28 399.877 276.496 396.175 275.336ZM396.443 287.602L396.8 290.412L385.203 285.996L384.534 287.736L397.826 292.776L398.406 291.259L397.96 287.78L396.443 287.602ZM385.471 303.971C381.055 301.964 379.361 299.243 380.654 296.388C381.814 293.846 384.936 293.222 389.262 295.095C393.633 297.057 395.15 300.001 393.99 302.633C392.741 305.353 389.574 305.844 385.471 303.971ZM388.415 296.834C385.025 295.318 382.661 295.496 381.948 297.102C381.145 298.886 382.84 300.715 386.14 302.187C389.351 303.614 391.805 303.748 392.607 301.919C393.321 300.403 391.983 298.44 388.415 296.834ZM387.166 309.055V311.91L376.149 306.112L375.302 307.762L387.879 314.408L388.638 312.936V309.412L387.166 309.055ZM374.231 323.997C370.083 321.499 368.745 318.556 370.396 315.879C371.823 313.516 375.034 313.248 379.093 315.656C383.152 318.154 384.356 321.276 382.84 323.729C381.278 326.272 378.112 326.361 374.231 323.997ZM378.067 317.262C374.9 315.344 372.537 315.21 371.6 316.727C370.574 318.422 372.046 320.429 375.168 322.302C378.156 324.131 380.609 324.532 381.635 322.837C382.483 321.41 381.368 319.269 378.067 317.262ZM375.346 329.215L374.99 332.025L364.82 324.978L363.75 326.495L375.436 334.612L376.372 333.274L376.774 329.751L375.346 329.215ZM360.717 342.417C356.926 339.429 355.945 336.352 357.907 333.899C359.647 331.713 362.858 331.847 366.56 334.746C370.306 337.69 371.109 340.946 369.281 343.22C367.407 345.54 364.241 345.227 360.717 342.417ZM365.311 336.218C362.412 333.943 360.048 333.497 358.978 334.88C357.773 336.441 358.978 338.582 361.832 340.856C364.597 343.042 366.961 343.756 368.166 342.194C369.191 340.856 368.344 338.626 365.311 336.218ZM361.118 347.77L360.449 350.535L351.128 342.239L349.879 343.622L360.494 353.122L361.609 351.918L362.456 348.483L361.118 347.77ZM345.017 359.099C341.627 355.664 341.003 352.497 343.233 350.267C345.196 348.305 348.362 348.84 351.707 352.141C355.053 355.53 355.454 358.831 353.402 360.883C351.306 363.024 348.229 362.31 345.017 359.099ZM350.369 353.523C347.783 350.892 345.463 350.223 344.214 351.427C342.832 352.81 343.768 355.129 346.311 357.671C348.764 360.169 351.038 361.15 352.466 359.768C353.67 358.563 353.09 356.244 350.369 353.523ZM344.839 364.451L343.813 367.127L335.562 357.716L334.179 358.965L343.59 369.669L344.839 368.599L346.088 365.298L344.839 364.451ZM327.4 373.817C324.456 369.981 324.233 366.77 326.686 364.852C328.871 363.157 331.949 364.049 334.893 367.751C337.836 371.542 337.792 374.843 335.517 376.627C333.198 378.456 330.209 377.385 327.4 373.817ZM333.376 368.911C331.101 365.967 328.916 365.031 327.533 366.101C325.972 367.305 326.641 369.714 328.871 372.568C331.012 375.334 333.153 376.582 334.714 375.378C336.052 374.352 335.74 371.944 333.376 368.911ZM326.597 379.036L325.259 381.578L318.256 371.275L316.74 372.345L324.768 384.076L326.106 383.139L327.712 380.017L326.597 379.036ZM308.176 386.216C305.678 382.068 305.857 378.857 308.578 377.251C310.986 375.824 313.93 377.118 316.383 381.132C318.836 385.235 318.39 388.536 315.937 390.008C313.35 391.524 310.495 390.141 308.176 386.216ZM314.733 382.068C312.815 378.902 310.763 377.653 309.291 378.59C307.596 379.615 307.953 382.068 309.826 385.191C311.61 388.179 313.573 389.695 315.268 388.67C316.695 387.822 316.695 385.414 314.733 382.068ZM306.749 391.301L305.143 393.665L299.39 382.604L297.739 383.451L304.251 396.073L305.723 395.315L307.73 392.416L306.749 391.301ZM287.615 396.207C285.652 391.792 286.232 388.625 289.087 387.332C291.629 386.216 294.394 387.822 296.357 392.104C298.275 396.475 297.472 399.686 294.84 400.89C292.075 402.095 289.443 400.355 287.615 396.207ZM294.573 392.907C293.056 389.517 291.183 388.045 289.577 388.759C287.793 389.562 287.838 392.059 289.31 395.36C290.737 398.571 292.476 400.311 294.305 399.508C295.866 398.794 296.134 396.43 294.573 392.907ZM285.518 401.113L283.601 403.254L279.274 391.569L277.535 392.238L282.485 405.574L284.047 404.994L286.366 402.362L285.518 401.113ZM265.938 403.611C264.556 398.973 265.492 395.895 268.525 395.003C271.201 394.2 273.744 396.163 275.126 400.667C276.509 405.217 275.305 408.339 272.539 409.186C269.64 410.034 267.232 407.938 265.938 403.611ZM273.253 401.158C272.182 397.634 270.488 395.94 268.793 396.43C266.919 397.01 266.652 399.463 267.722 402.942C268.748 406.287 270.265 408.25 272.182 407.67C273.788 407.224 274.368 404.905 273.253 401.158ZM263.262 408.25L261.121 410.123L258.311 397.991L256.483 398.437L259.739 412.264L261.344 411.907L263.976 409.588L263.262 408.25ZM243.459 408.294C242.656 403.522 243.95 400.578 247.072 400.043C249.792 399.552 252.112 401.827 252.959 406.466C253.762 411.149 252.201 414.093 249.346 414.583C246.358 415.118 244.262 412.754 243.459 408.294ZM251.041 406.778C250.417 403.12 248.945 401.247 247.206 401.559C245.243 401.872 244.708 404.325 245.332 407.893C245.912 411.327 247.205 413.468 249.168 413.111C250.863 412.844 251.71 410.614 251.041 406.778ZM240.292 412.576L237.928 414.182L236.546 401.827L234.717 402.05L236.278 416.189L237.928 416.01L240.827 414.003L240.292 412.576ZM220.667 410.212C220.444 405.395 222.095 402.63 225.261 402.496C228.027 402.362 230.034 404.86 230.301 409.588C230.524 414.36 228.607 417.081 225.707 417.215C222.719 417.348 220.89 414.762 220.667 410.212ZM228.384 409.632C228.205 405.93 226.956 403.879 225.217 403.968C223.254 404.057 222.407 406.421 222.585 410.034C222.764 413.513 223.745 415.787 225.752 415.698C227.447 415.609 228.562 413.513 228.384 409.632Z" fill="white"/>
<path fill-rule="evenodd" clip-rule="evenodd" d="M124.18 106.153C126.766 108.991 127.176 111.483 125.315 113.154C123.707 114.637 121.184 114.132 118.661 111.42C116.106 108.613 115.885 105.995 117.557 104.45C119.323 102.873 121.751 103.535 124.18 106.153ZM119.796 110.41C121.783 112.587 123.581 113.186 124.59 112.24C125.725 111.167 125.031 109.338 123.107 107.225C121.247 105.175 119.449 104.323 118.314 105.396C117.336 106.31 117.746 108.171 119.796 110.41Z" fill="white"/>
<path d="M111.722 112.492L111.091 114.636L110.051 114.037L110.839 111.357L111.722 110.41L119.796 118.232L118.787 119.304L111.722 112.492Z" fill="white"/>
<path d="M124.464 101.958L125.347 99.8766L131.528 107.509L132.664 106.563L125.567 97.8266L124.558 98.6466L123.486 101.233L124.464 101.958Z" fill="white"/>
<path fill-rule="evenodd" clip-rule="evenodd" d="M138.53 95.0828C140.769 98.2051 140.832 100.728 138.813 102.179C137.016 103.472 134.619 102.652 132.411 99.6243C130.204 96.5336 130.298 93.9159 132.19 92.5913C134.114 91.2352 136.448 92.1813 138.53 95.0828ZM133.673 98.8043C135.376 101.201 137.079 102.021 138.214 101.201C139.476 100.318 139.034 98.3628 137.363 96.0605C135.754 93.8213 134.114 92.749 132.821 93.6636C131.686 94.4205 131.875 96.3128 133.673 98.8043Z" fill="white"/>
<path d="M139.35 90.9197L140.485 88.9643L145.657 97.2904L146.887 96.502L140.895 86.9774L139.823 87.6713L138.467 90.0997L139.35 90.9197Z" fill="white"/>
<path fill-rule="evenodd" clip-rule="evenodd" d="M154.141 85.8421C155.97 89.1851 155.75 91.7397 153.542 92.9382C151.618 93.979 149.316 92.8751 147.518 89.6267C145.72 86.3152 146.13 83.6975 148.149 82.6252C150.23 81.4898 152.406 82.7198 154.141 85.8421ZM148.843 88.9328C150.23 91.519 151.807 92.5282 153.037 91.8659C154.425 91.109 154.173 89.1536 152.816 86.6621C151.492 84.2021 150.01 82.9721 148.622 83.729C147.455 84.3283 147.36 86.2521 148.843 88.9328Z" fill="white"/>
<path d="M155.434 81.8368L156.79 80.0391L160.953 88.9329L162.278 88.3021L157.516 78.1153L156.349 78.6514L154.677 80.8906L155.434 81.8368Z" fill="white"/>
<path fill-rule="evenodd" clip-rule="evenodd" d="M170.73 78.5884C172.149 82.1522 171.613 84.6437 169.248 85.5583C167.198 86.3468 165.053 85.0222 163.666 81.5529C162.278 78.0207 163.035 75.4976 165.148 74.6461C167.387 73.7945 169.406 75.2453 170.73 78.5884ZM165.116 80.9853C166.189 83.6976 167.671 84.9275 168.933 84.4229C170.383 83.8552 170.415 81.8684 169.343 79.2191C168.333 76.633 166.977 75.2138 165.526 75.7815C164.296 76.2545 163.981 78.1468 165.116 80.9853Z" fill="white"/>
<path d="M172.496 74.8037L174.073 73.1637L177.164 82.499L178.552 82.0575L175.051 71.366L173.821 71.776L171.866 73.7945L172.496 74.8037Z" fill="white"/>
<path fill-rule="evenodd" clip-rule="evenodd" d="M188.108 73.4476C189.054 77.1691 188.234 79.566 185.805 80.1653C183.661 80.733 181.706 79.093 180.759 75.4976C179.813 71.8392 180.854 69.4107 183.062 68.843C185.364 68.2438 187.193 69.9469 188.108 73.4476ZM182.242 75.1507C182.999 77.9891 184.26 79.3768 185.616 79.0299C187.13 78.6514 187.382 76.6961 186.657 73.8892C185.963 71.1769 184.828 69.6 183.282 70.01C181.989 70.3569 181.453 72.1546 182.242 75.1507Z" fill="white"/>
<path d="M190.379 69.8523L192.113 68.433L194.005 78.0837L195.425 77.7999L193.28 66.7615L192.019 67.0138L189.874 68.7799L190.379 69.8523Z" fill="white"/>
<path fill-rule="evenodd" clip-rule="evenodd" d="M205.99 70.3884C206.495 74.173 205.359 76.4438 202.868 76.7907C200.691 77.0745 198.925 75.2453 198.421 71.5238C197.948 67.7707 199.272 65.5 201.511 65.2162C203.908 64.9639 205.548 66.8561 205.99 70.3884ZM199.935 71.3977C200.313 74.2992 201.417 75.8445 202.805 75.6553C204.35 75.4345 204.855 73.5423 204.476 70.7038C204.129 67.96 203.183 66.2569 201.606 66.4462C200.313 66.6038 199.556 68.37 199.935 71.3977Z" fill="white"/>
<path d="M208.671 67.1399L210.563 65.9414L211.288 75.7498L212.771 75.6552L211.951 64.4276L210.658 64.5222L208.292 66.0045L208.671 67.1399Z" fill="white"/>
<path fill-rule="evenodd" clip-rule="evenodd" d="M224.093 69.5684C224.124 73.3845 222.737 75.5291 220.245 75.5606C218.038 75.5606 216.524 73.5422 216.461 69.8207C216.398 66.0361 218.038 63.9546 220.34 63.923C222.642 63.8915 224.061 66.0045 224.093 69.5684ZM217.974 69.8207C218.006 72.7537 218.921 74.4253 220.308 74.3622C221.854 74.3306 222.579 72.533 222.579 69.6314C222.548 66.8876 221.822 65.0269 220.245 65.0899C218.889 65.1215 217.943 66.7615 217.974 69.8207Z" fill="white"/>
<path d="M227.121 66.6669L229.171 65.6892L228.761 75.5607L230.211 75.6237L230.747 64.3646L229.423 64.3015L226.9 65.5L227.121 66.6669Z" fill="white"/>
<path fill-rule="evenodd" clip-rule="evenodd" d="M242.133 70.9561C241.723 74.7722 240.051 76.696 237.591 76.4437C235.384 76.1914 234.154 74.0153 234.532 70.2938C234.942 66.5407 236.803 64.6799 239.074 64.9323C241.407 65.1215 242.543 67.3922 242.133 70.9561ZM236.014 70.4514C235.699 73.3529 236.393 75.1191 237.781 75.2453C239.326 75.4029 240.272 73.6999 240.587 70.8614C240.903 68.0861 240.367 66.2253 238.821 66.0676C237.497 65.8784 236.361 67.3922 236.014 70.4514Z" fill="white"/>
<path d="M245.57 68.4015L247.715 67.7076L246.044 77.3899L247.494 77.6422L249.418 66.5723L248.125 66.3515L245.476 67.2346L245.57 68.4015Z" fill="white"/>
<path fill-rule="evenodd" clip-rule="evenodd" d="M259.92 74.4884C259.037 78.2099 257.176 79.9445 254.748 79.3453C252.603 78.8407 251.626 76.4753 252.477 72.8484C253.36 69.1899 255.41 67.5184 257.65 68.0546C259.92 68.6223 260.74 71.0192 259.92 74.4884ZM253.96 73.2584C253.266 76.0968 253.77 77.926 255.126 78.273C256.64 78.6514 257.807 77.043 258.47 74.2361C259.1 71.5238 258.816 69.5999 257.303 69.2215C255.978 68.9061 254.622 70.2622 253.96 73.2584Z" fill="white"/>
<path d="M263.547 72.3753L265.755 71.9338L262.916 81.3952L264.336 81.8052L267.616 71.0191L266.354 70.6407L263.61 71.1768L263.547 72.3753Z" fill="white"/>
<path fill-rule="evenodd" clip-rule="evenodd" d="M277.109 80.1337C275.784 83.7291 273.734 85.2113 271.369 84.3598C269.287 83.6029 268.625 81.1745 269.886 77.6422C271.211 74.1099 273.419 72.7222 275.595 73.5107C277.802 74.3307 278.37 76.7907 277.109 80.1337ZM271.306 78.1783C270.265 80.9222 270.549 82.7829 271.873 83.2875C273.356 83.8237 274.68 82.3729 275.658 79.6922C276.604 77.106 276.572 75.1192 275.09 74.583C273.829 74.1415 272.378 75.3399 271.306 78.1783Z" fill="white"/>
<path d="M281.051 78.5252L283.29 78.3675L279.316 87.3244L280.672 87.9236L285.214 77.6421L284.016 77.1375L281.24 77.3268L281.051 78.5252Z" fill="white"/>
<path fill-rule="evenodd" clip-rule="evenodd" d="M293.508 87.9552C291.742 91.3613 289.503 92.5913 287.327 91.4244C285.372 90.4152 284.993 87.8921 286.665 84.5806C288.399 81.206 290.796 80.1337 292.846 81.1745C294.928 82.2468 295.148 84.7383 293.508 87.9552ZM287.989 85.2744C286.633 87.8921 286.665 89.7529 287.895 90.4152C289.282 91.109 290.796 89.8475 292.089 87.2929C293.351 84.8329 293.572 82.9091 292.184 82.1521C291.017 81.5529 289.409 82.5306 287.989 85.2744Z" fill="white"/>
<path d="M297.545 86.7566L299.816 86.8828L294.739 95.3035L296 96.0604L301.772 86.3782L300.668 85.7159L297.892 85.5897L297.545 86.7566Z" fill="white"/>
<path fill-rule="evenodd" clip-rule="evenodd" d="M308.836 97.6058C306.692 100.76 304.295 101.706 302.245 100.287C300.447 99.0566 300.352 96.502 302.434 93.4113C304.547 90.289 307.102 89.5005 308.962 90.7936C310.918 92.1182 310.855 94.6412 308.836 97.6058ZM303.695 94.2943C302.024 96.7228 301.866 98.5835 302.97 99.372C304.232 100.255 305.903 99.1512 307.512 96.7858C309.088 94.5151 309.498 92.5913 308.237 91.7082C307.133 90.9828 305.398 91.7713 303.695 94.2943Z" fill="white"/>
<path d="M312.999 96.9751L315.207 97.3535L309.183 105.08L310.35 105.995L317.257 97.1328L316.216 96.3443L313.472 95.8713L312.999 96.9751Z" fill="white"/>
<path fill-rule="evenodd" clip-rule="evenodd" d="M322.839 109.086C320.284 111.956 317.856 112.618 315.964 110.978C314.324 109.527 314.545 106.973 316.973 104.166C319.496 101.327 322.051 100.854 323.785 102.337C325.551 103.914 325.204 106.405 322.839 109.086ZM318.108 105.175C316.153 107.383 315.775 109.212 316.815 110.127C317.982 111.167 319.748 110.284 321.641 108.14C323.47 106.058 324.164 104.229 322.934 103.188C321.956 102.274 320.158 102.873 318.108 105.175Z" fill="white"/>
<path d="M326.939 108.897L329.084 109.527L322.24 116.623L323.312 117.633L331.134 109.559L330.219 108.644L327.538 107.856L326.939 108.897Z" fill="white"/>
<path fill-rule="evenodd" clip-rule="evenodd" d="M335.36 122.174C332.49 124.729 329.998 125.076 328.327 123.215C326.876 121.575 327.412 119.083 330.156 116.592C332.994 114.069 335.612 113.911 337.126 115.614C338.703 117.38 338.04 119.809 335.36 122.174ZM331.165 117.727C328.957 119.683 328.327 121.449 329.241 122.489C330.282 123.656 332.143 122.994 334.256 121.07C336.306 119.21 337.22 117.475 336.18 116.308C335.328 115.33 333.436 115.709 331.165 117.727Z" fill="white"/>
<path d="M339.586 122.553L341.636 123.467L333.909 129.491L334.824 130.658L343.686 123.688L342.866 122.679L340.311 121.575L339.586 122.553Z" fill="white"/>
<path fill-rule="evenodd" clip-rule="evenodd" d="M346.24 136.713C343.087 138.921 340.564 138.921 339.113 136.903C337.851 135.073 338.703 132.708 341.762 130.532C344.853 128.387 347.502 128.513 348.827 130.406C350.12 132.329 349.174 134.663 346.24 136.713ZM342.582 131.793C340.154 133.465 339.334 135.168 340.122 136.272C341.005 137.533 342.929 137.123 345.294 135.515C347.565 133.938 348.669 132.329 347.754 131.036C346.997 129.901 345.105 130.027 342.582 131.793Z" fill="white"/>
<path d="M350.372 137.565L352.296 138.732L343.938 143.809L344.695 145.071L354.314 139.236L353.652 138.133L351.223 136.713L350.372 137.565Z" fill="white"/>
<path fill-rule="evenodd" clip-rule="evenodd" d="M355.229 152.451C351.854 154.249 349.3 153.965 348.164 151.757C347.155 149.802 348.29 147.531 351.57 145.765C354.913 143.999 357.531 144.472 358.572 146.522C359.644 148.603 358.383 150.748 355.229 152.451ZM352.233 147.121C349.647 148.509 348.606 150.054 349.237 151.252C349.962 152.609 351.917 152.419 354.472 151.126C356.9 149.833 358.193 148.351 357.468 146.995C356.806 145.765 354.945 145.67 352.233 147.121Z" fill="white"/>
<path d="M359.234 153.807L361 155.195L352.043 159.169L352.643 160.525L362.924 155.92L362.388 154.753L360.18 153.05L359.234 153.807Z" fill="white"/>
<path fill-rule="evenodd" clip-rule="evenodd" d="M362.23 169.103C358.666 170.459 356.175 169.86 355.292 167.526C354.503 165.476 355.923 163.363 359.392 161.975C362.924 160.651 365.447 161.408 366.267 163.552C367.087 165.823 365.573 167.842 362.23 169.103ZM359.896 163.489C357.153 164.53 355.923 165.949 356.396 167.242C356.963 168.693 358.919 168.756 361.6 167.715C364.217 166.738 365.636 165.445 365.1 163.962C364.627 162.732 362.766 162.385 359.896 163.489Z" fill="white"/>
<path d="M366.015 170.995L367.623 172.604L358.193 175.537L358.635 176.924L369.389 173.613L369.011 172.351L367.024 170.365L366.015 170.995Z" fill="white"/>
<path fill-rule="evenodd" clip-rule="evenodd" d="M367.119 186.607C363.397 187.49 361 186.607 360.433 184.21C359.928 182.065 361.568 180.11 365.163 179.227C368.822 178.344 371.219 179.416 371.786 181.624C372.354 183.958 370.619 185.755 367.119 186.607ZM365.51 180.709C362.672 181.403 361.284 182.665 361.568 184.021C361.946 185.534 363.87 185.818 366.677 185.156C369.358 184.494 370.966 183.39 370.619 181.845C370.336 180.551 368.506 179.984 365.51 180.709Z" fill="white"/>
<path d="M370.683 188.909L372.07 190.675L362.388 192.41L362.64 193.861L373.71 191.874L373.49 190.581L371.755 188.404L370.683 188.909Z" fill="white"/>
<path fill-rule="evenodd" clip-rule="evenodd" d="M369.863 204.489C366.078 204.93 363.776 203.764 363.523 201.304C363.271 199.096 365.163 197.393 368.853 196.92C372.575 196.478 374.846 197.866 375.129 200.105C375.382 202.502 373.426 204.079 369.863 204.489ZM368.979 198.434C366.046 198.781 364.533 199.853 364.659 201.24C364.816 202.786 366.74 203.322 369.61 202.975C372.354 202.628 374.089 201.714 373.931 200.168C373.773 198.875 372.039 198.087 368.979 198.434Z" fill="white"/>
<path d="M373.143 207.264L374.31 209.188L364.501 209.724L364.596 211.207L375.823 210.576L375.729 209.283L374.278 206.886L373.143 207.264Z" fill="white"/>
<path fill-rule="evenodd" clip-rule="evenodd" d="M370.462 222.56C366.646 222.529 364.533 221.11 364.533 218.65C364.533 216.442 366.614 214.991 370.336 214.928C374.12 214.928 376.202 216.568 376.17 218.87C376.17 221.267 374.026 222.592 370.462 222.56ZM370.304 216.473C367.371 216.442 365.7 217.356 365.7 218.744C365.7 220.321 367.497 221.046 370.399 221.046C373.174 221.046 375.003 220.353 375.003 218.776C375.003 217.451 373.395 216.473 370.304 216.473Z" fill="white"/>
<path d="M373.363 225.714L374.278 227.764L364.438 227.133L364.343 228.616L375.603 229.341L375.697 228.048L374.53 225.493L373.363 225.714Z" fill="white"/>
<path fill-rule="evenodd" clip-rule="evenodd" d="M368.822 240.663C365.006 240.19 363.082 238.519 363.429 236.027C363.713 233.851 365.952 232.621 369.61 233.063C373.363 233.536 375.224 235.396 374.94 237.699C374.656 240.064 372.386 241.136 368.822 240.663ZM369.421 234.576C366.52 234.198 364.753 234.892 364.564 236.279C364.343 237.825 366.078 238.803 368.948 239.149C371.692 239.496 373.616 239.023 373.805 237.446C373.963 236.153 372.449 234.955 369.421 234.576Z" fill="white"/>
<path d="M371.282 244.069L371.976 246.214L362.262 244.448L362.01 245.899L373.079 247.949L373.332 246.687L372.48 244.006L371.282 244.069Z" fill="white"/>
<path fill-rule="evenodd" clip-rule="evenodd" d="M365.006 258.356C361.284 257.41 359.581 255.518 360.212 253.121C360.748 251.008 363.113 250.03 366.74 250.945C370.399 251.891 372.007 253.941 371.471 256.18C370.872 258.482 368.506 259.271 365.006 258.356ZM366.362 252.395C363.523 251.702 361.694 252.143 361.347 253.499C360.969 255.013 362.546 256.148 365.353 256.874C368.033 257.536 369.957 257.315 370.367 255.77C370.651 254.477 369.326 253.152 366.362 252.395Z" fill="white"/>
<path d="M367.087 262.015L367.497 264.254L358.099 261.289L357.657 262.677L368.38 266.083L368.79 264.853L368.286 262.078L367.087 262.015Z" fill="white"/>
<path fill-rule="evenodd" clip-rule="evenodd" d="M359.108 275.482C355.513 274.094 354.062 272.012 354.976 269.71C355.765 267.66 358.225 267.029 361.726 268.322C365.226 269.678 366.614 271.949 365.794 274.094C364.879 276.27 362.42 276.775 359.108 275.482ZM361.158 269.71C358.414 268.669 356.553 268.89 356.049 270.215C355.481 271.665 356.9 273.022 359.581 274.062C362.167 275.072 364.123 275.072 364.659 273.589C365.163 272.328 363.996 270.845 361.158 269.71Z" fill="white"/>
<path d="M360.685 279.392L360.811 281.663L351.886 277.531L351.255 278.856L361.505 283.555L362.041 282.388L361.852 279.613L360.685 279.392Z" fill="white"/>
<path fill-rule="evenodd" clip-rule="evenodd" d="M351.097 291.755C347.723 289.957 346.524 287.687 347.723 285.479C348.764 283.555 351.287 283.177 354.567 284.943C357.878 286.741 358.95 289.137 357.878 291.156C356.774 293.269 354.251 293.458 351.097 291.755ZM353.841 286.299C351.255 284.911 349.363 284.911 348.7 286.141C347.975 287.498 349.205 289.043 351.76 290.399C354.22 291.724 356.143 291.944 356.9 290.557C357.531 289.358 356.522 287.718 353.841 286.299Z" fill="white"/>
<path d="M352.201 295.824L352.043 298.063L343.654 292.891L342.897 294.152L352.485 300.081L353.147 298.978L353.336 296.202L352.201 295.824Z" fill="white"/>
<path fill-rule="evenodd" clip-rule="evenodd" d="M341.163 306.925C338.009 304.717 337.126 302.321 338.577 300.302C339.87 298.504 342.393 298.504 345.452 300.617C348.511 302.794 349.3 305.348 347.975 307.177C346.587 309.133 344.096 308.975 341.163 306.925ZM344.537 301.847C342.14 300.144 340.28 299.924 339.46 301.059C338.577 302.321 339.617 303.992 341.983 305.664C344.253 307.24 346.146 307.745 347.06 306.452C347.849 305.348 347.06 303.614 344.537 301.847Z" fill="white"/>
<path d="M341.762 311.12L341.32 313.327L333.594 307.177L332.679 308.344L341.478 315.377L342.298 314.368L342.834 311.624L341.762 311.12Z" fill="white"/>
<path fill-rule="evenodd" clip-rule="evenodd" d="M329.462 320.77C326.624 318.184 325.993 315.724 327.696 313.895C329.178 312.287 331.701 312.539 334.477 314.999C337.284 317.553 337.725 320.14 336.18 321.811C334.603 323.577 332.111 323.167 329.462 320.77ZM333.467 316.134C331.291 314.147 329.462 313.706 328.547 314.747C327.507 315.913 328.327 317.68 330.471 319.635C332.521 321.496 334.35 322.19 335.391 321.023C336.274 320.013 335.707 318.184 333.467 316.134Z" fill="white"/>
<path d="M329.525 325.06L328.831 327.204L322.019 320.203L320.947 321.212L328.768 329.286L329.683 328.371L330.534 325.69L329.525 325.06Z" fill="white"/>
<path fill-rule="evenodd" clip-rule="evenodd" d="M316.31 333.414C313.723 330.576 313.313 328.084 315.174 326.413C316.783 324.93 319.306 325.435 321.829 328.147C324.383 330.954 324.604 333.572 322.933 335.117C321.167 336.694 318.738 336.032 316.31 333.414ZM320.693 329.157C318.707 326.98 316.909 326.381 315.9 327.327C314.764 328.4 315.458 330.229 317.382 332.342C319.243 334.392 321.04 335.243 322.176 334.171C323.153 333.257 322.743 331.396 320.693 329.157Z" fill="white"/>
<path d="M328.767 327.075L329.398 324.93L330.439 325.53L329.65 328.21L328.767 329.157L320.693 321.335L321.703 320.263L328.767 327.075Z" fill="white"/>
<path d="M316.026 337.609L315.143 339.69L308.961 332.058L307.826 333.004L314.922 341.74L315.931 340.92L317.003 338.334L316.026 337.609Z" fill="white"/>
<path fill-rule="evenodd" clip-rule="evenodd" d="M301.96 344.484C299.721 341.362 299.657 338.839 301.676 337.388C303.474 336.095 305.871 336.915 308.078 339.943C310.286 343.033 310.191 345.651 308.299 346.976C306.375 348.332 304.041 347.386 301.96 344.484ZM306.817 340.763C305.114 338.366 303.411 337.546 302.275 338.366C301.014 339.249 301.455 341.204 303.127 343.506C304.735 345.746 306.375 346.818 307.668 345.903C308.804 345.146 308.614 343.254 306.817 340.763Z" fill="white"/>
<path d="M301.14 348.647L300.004 350.603L294.832 342.276L293.602 343.065L299.594 352.589L300.667 351.896L302.023 349.467L301.14 348.647Z" fill="white"/>
<path fill-rule="evenodd" clip-rule="evenodd" d="M286.348 353.725C284.519 350.382 284.74 347.827 286.947 346.629C288.871 345.588 291.174 346.692 292.971 349.94C294.769 353.252 294.359 355.869 292.341 356.942C290.259 358.077 288.083 356.847 286.348 353.725ZM291.647 350.634C290.259 348.048 288.682 347.039 287.452 347.701C286.064 348.458 286.317 350.413 287.673 352.905C288.997 355.365 290.48 356.595 291.867 355.838C293.034 355.239 293.129 353.315 291.647 350.634Z" fill="white"/>
<path d="M285.055 357.73L283.699 359.528L279.536 350.634L278.211 351.265L282.974 361.452L284.141 360.915L285.812 358.676L285.055 357.73Z" fill="white"/>
<path fill-rule="evenodd" clip-rule="evenodd" d="M269.759 360.979C268.34 357.415 268.876 354.923 271.241 354.009C273.291 353.22 275.436 354.545 276.824 358.014C278.211 361.546 277.455 364.069 275.341 364.921C273.102 365.772 271.084 364.322 269.759 360.979ZM275.373 358.582C274.301 355.869 272.818 354.639 271.557 355.144C270.106 355.712 270.075 357.699 271.147 360.348C272.156 362.934 273.512 364.353 274.963 363.785C276.193 363.312 276.508 361.42 275.373 358.582Z" fill="white"/>
<path d="M267.993 364.763L266.416 366.403L263.325 357.068L261.938 357.509L265.438 368.201L266.668 367.791L268.624 365.772L267.993 364.763Z" fill="white"/>
<path fill-rule="evenodd" clip-rule="evenodd" d="M252.382 366.119C251.435 362.398 252.255 360.001 254.684 359.402C256.828 358.834 258.784 360.474 259.73 364.069C260.676 367.728 259.635 370.156 257.428 370.724C255.125 371.323 253.296 369.62 252.382 366.119ZM258.248 364.416C257.491 361.578 256.229 360.19 254.873 360.537C253.359 360.915 253.107 362.871 253.832 365.678C254.526 368.39 255.662 369.967 257.207 369.557C258.5 369.21 259.036 367.412 258.248 364.416Z" fill="white"/>
<path d="M250.111 369.715L248.376 371.134L246.484 361.483L245.065 361.767L247.209 372.805L248.471 372.553L250.615 370.787L250.111 369.715Z" fill="white"/>
<path fill-rule="evenodd" clip-rule="evenodd" d="M234.499 369.178C233.995 365.394 235.13 363.123 237.622 362.776C239.798 362.492 241.564 364.322 242.069 368.043C242.542 371.796 241.217 374.067 238.978 374.351C236.581 374.603 234.941 372.711 234.499 369.178ZM240.555 368.169C240.176 365.268 239.072 363.722 237.685 363.912C236.139 364.132 235.635 366.025 236.013 368.863C236.36 371.607 237.306 373.31 238.883 373.121C240.176 372.963 240.933 371.197 240.555 368.169Z" fill="white"/>
<path d="M231.819 372.427L229.926 373.625L229.201 363.817L227.719 363.912L228.539 375.139L229.832 375.045L232.197 373.562L231.819 372.427Z" fill="white"/>
<path fill-rule="evenodd" clip-rule="evenodd" d="M216.396 369.999C216.365 366.182 217.753 364.038 220.244 364.006C222.452 364.006 223.966 366.025 224.029 369.746C224.092 373.531 222.452 375.612 220.15 375.644C217.847 375.675 216.428 373.562 216.396 369.999ZM222.515 369.746C222.483 366.813 221.569 365.142 220.181 365.205C218.636 365.236 217.91 367.034 217.91 369.935C217.942 372.679 218.667 374.54 220.244 374.477C221.6 374.445 222.546 372.805 222.515 369.746Z" fill="white"/>
<path d="M213.369 372.9L211.319 373.878L211.729 364.006L210.278 363.943L209.742 375.202L211.067 375.265L213.59 374.067L213.369 372.9Z" fill="white"/>
<path fill-rule="evenodd" clip-rule="evenodd" d="M198.357 368.611C198.767 364.795 200.438 362.871 202.898 363.123C205.106 363.375 206.336 365.552 205.957 369.273C205.547 373.026 203.687 374.887 201.416 374.635C199.082 374.445 197.947 372.175 198.357 368.611ZM204.475 369.115C204.79 366.214 204.097 364.448 202.709 364.322C201.163 364.164 200.217 365.867 199.902 368.705C199.587 371.481 200.123 373.342 201.668 373.499C202.993 373.688 204.128 372.175 204.475 369.115Z" fill="white"/>
<path d="M194.919 371.165L192.774 371.859L194.446 362.177L192.995 361.925L191.071 372.995L192.364 373.215L195.014 372.332L194.919 371.165Z" fill="white"/>
<path fill-rule="evenodd" clip-rule="evenodd" d="M180.569 365.079C181.452 361.357 183.313 359.622 185.741 360.222C187.886 360.726 188.864 363.092 188.012 366.718C187.129 370.377 185.079 372.048 182.84 371.512C180.569 370.945 179.749 368.548 180.569 365.079ZM186.53 366.309C187.224 363.47 186.719 361.641 185.363 361.294C183.849 360.915 182.682 362.524 182.02 365.331C181.389 368.043 181.673 369.967 183.187 370.345C184.511 370.661 185.867 369.305 186.53 366.309Z" fill="white"/>
<path d="M176.942 367.192L174.735 367.633L177.573 358.172L176.154 357.762L172.874 368.548L174.135 368.926L176.879 368.39L176.942 367.192Z" fill="white"/>
<path fill-rule="evenodd" clip-rule="evenodd" d="M163.381 359.433C164.705 355.838 166.755 354.356 169.121 355.207C171.202 355.964 171.865 358.392 170.603 361.925C169.278 365.457 167.071 366.845 164.895 366.056C162.687 365.236 162.119 362.776 163.381 359.433ZM169.184 361.389C170.224 358.645 169.941 356.784 168.616 356.279C167.134 355.743 165.809 357.194 164.831 359.875C163.885 362.461 163.917 364.448 165.399 364.984C166.661 365.425 168.111 364.227 169.184 361.389Z" fill="white"/>
<path d="M159.438 361.042L157.199 361.199L161.173 352.243L159.817 351.643L155.275 361.925L156.474 362.429L159.249 362.24L159.438 361.042Z" fill="white"/>
<path fill-rule="evenodd" clip-rule="evenodd" d="M146.981 351.612C148.747 348.206 150.986 346.976 153.162 348.143C155.118 349.152 155.496 351.675 153.825 354.986C152.09 358.361 149.693 359.433 147.643 358.393C145.562 357.32 145.341 354.829 146.981 351.612ZM152.5 354.293C153.856 351.675 153.825 349.814 152.595 349.152C151.207 348.458 149.693 349.72 148.4 352.274C147.139 354.734 146.918 356.658 148.305 357.415C149.472 358.014 151.081 357.036 152.5 354.293Z" fill="white"/>
<path d="M142.944 352.81L140.673 352.684L145.751 344.263L144.489 343.506L138.718 353.189L139.822 353.851L142.597 353.977L142.944 352.81Z" fill="white"/>
<path fill-rule="evenodd" clip-rule="evenodd" d="M131.653 341.961C133.798 338.807 136.195 337.861 138.245 339.28C140.042 340.51 140.137 343.065 138.056 346.156C135.942 349.278 133.388 350.066 131.527 348.773C129.572 347.449 129.635 344.926 131.653 341.961ZM136.794 345.273C138.466 342.844 138.623 340.983 137.519 340.195C136.258 339.312 134.586 340.416 132.978 342.781C131.401 345.052 130.991 346.976 132.252 347.859C133.356 348.584 135.091 347.796 136.794 345.273Z" fill="white"/>
<path d="M127.49 342.592L125.283 342.213L131.306 334.486L130.139 333.572L123.233 342.434L124.273 343.223L127.017 343.696L127.49 342.592Z" fill="white"/>
<path fill-rule="evenodd" clip-rule="evenodd" d="M117.65 330.481C120.205 327.611 122.633 326.949 124.526 328.589C126.166 330.04 125.945 332.594 123.516 335.401C120.993 338.24 118.439 338.713 116.704 337.23C114.938 335.653 115.285 333.162 117.65 330.481ZM122.381 334.392C124.336 332.184 124.715 330.355 123.674 329.44C122.507 328.4 120.741 329.283 118.849 331.427C117.02 333.509 116.326 335.338 117.556 336.379C118.533 337.293 120.331 336.694 122.381 334.392Z" fill="white"/>
<path d="M113.55 330.67L111.406 330.04L118.25 322.943L117.177 321.934L109.356 330.008L110.27 330.923L112.951 331.711L113.55 330.67Z" fill="white"/>
<path fill-rule="evenodd" clip-rule="evenodd" d="M105.13 317.393C108 314.838 110.491 314.491 112.163 316.352C113.613 317.992 113.077 320.484 110.333 322.975C107.495 325.498 104.877 325.656 103.364 323.953C101.787 322.187 102.449 319.758 105.13 317.393ZM109.324 321.84C111.532 319.884 112.163 318.118 111.248 317.077C110.207 315.911 108.347 316.573 106.234 318.497C104.184 320.357 103.269 322.092 104.31 323.259C105.161 324.237 107.054 323.858 109.324 321.84Z" fill="white"/>
<path d="M100.903 317.014L98.8535 316.1L106.58 310.076L105.666 308.909L96.8035 315.879L97.6235 316.888L100.178 317.992L100.903 317.014Z" fill="white"/>
<path fill-rule="evenodd" clip-rule="evenodd" d="M94.2489 302.854C97.4028 300.646 99.9258 300.646 101.377 302.664C102.638 304.494 101.787 306.859 98.7274 309.035C95.6366 311.18 92.9874 311.054 91.6628 309.161C90.3697 307.237 91.3159 304.904 94.2489 302.854ZM97.9074 307.774C100.336 306.102 101.156 304.399 100.367 303.295C99.4843 302.034 97.5605 302.444 95.1951 304.052C92.9243 305.629 91.8205 307.237 92.7351 308.531C93.492 309.666 95.3843 309.54 97.9074 307.774Z" fill="white"/>
<path d="M90.1175 302.002L88.1936 300.835L96.5513 295.757L95.7943 294.496L86.1752 300.331L86.8375 301.434L89.2659 302.854L90.1175 302.002Z" fill="white"/>
<path fill-rule="evenodd" clip-rule="evenodd" d="M85.2605 287.116C88.6351 285.318 91.1897 285.602 92.3251 287.81C93.3343 289.765 92.1989 292.036 88.919 293.802C85.5759 295.568 82.9582 295.095 81.9175 293.045C80.8452 290.964 82.1067 288.819 85.2605 287.116ZM88.2567 292.446C90.8428 291.058 91.8836 289.513 91.2528 288.314C90.5274 286.958 88.5721 287.148 86.0175 288.441C83.589 289.734 82.2959 291.216 83.0213 292.572C83.6836 293.802 85.5444 293.897 88.2567 292.446Z" fill="white"/>
<path d="M81.2552 285.76L79.4891 284.372L88.4459 280.398L87.8467 279.042L77.5653 283.647L78.1014 284.814L80.3091 286.517L81.2552 285.76Z" fill="white"/>
<path fill-rule="evenodd" clip-rule="evenodd" d="M78.2591 270.464C81.8229 269.108 84.3144 269.707 85.1975 272.041C85.9859 274.091 84.5667 276.204 81.0975 277.591C77.5652 278.916 75.0422 278.159 74.2222 276.015C73.4022 273.744 74.916 271.725 78.2591 270.464ZM80.5929 276.078C83.3367 275.037 84.5667 273.618 84.0937 272.325C83.526 270.874 81.5706 270.811 78.8899 271.852C76.2722 272.829 74.853 274.122 75.3891 275.605C75.8622 276.835 77.7229 277.181 80.5929 276.078Z" fill="white"/>
<path d="M74.4745 268.572L72.866 266.963L82.296 264.03L81.8544 262.642L71.0999 265.954L71.4783 267.215L73.4652 269.202L74.4745 268.572Z" fill="white"/>
<path fill-rule="evenodd" clip-rule="evenodd" d="M73.3707 252.96C77.0922 252.077 79.4891 252.96 80.0568 255.357C80.5614 257.502 78.9214 259.457 75.326 260.34C71.6676 261.223 69.2707 260.151 68.703 257.943C68.1353 255.609 69.8699 253.812 73.3707 252.96ZM74.9791 258.858C77.8176 258.164 79.2052 256.902 78.9214 255.546C78.5429 254.032 76.6191 253.749 73.8122 254.411C71.1315 255.073 69.523 256.177 69.8699 257.722C70.1538 259.015 71.983 259.583 74.9791 258.858Z" fill="white"/>
<path d="M69.8068 250.658L68.4191 248.892L78.1013 247.157L77.849 245.706L66.7791 247.693L66.9999 248.986L68.7345 251.163L69.8068 250.658Z" fill="white"/>
<path fill-rule="evenodd" clip-rule="evenodd" d="M70.6268 235.078C74.4114 234.636 76.7137 235.803 76.966 238.263C77.2183 240.471 75.326 242.174 71.636 242.647C67.9145 243.089 65.6438 241.701 65.3599 239.462C65.1076 237.065 67.063 235.488 70.6268 235.078ZM71.5099 241.133C74.4429 240.786 75.9568 239.714 75.8306 238.326C75.6729 236.781 73.7491 236.245 70.8791 236.592C68.1353 236.939 66.4007 237.853 66.5584 239.399C66.7161 240.692 68.4507 241.48 71.5099 241.133Z" fill="white"/>
<path d="M67.3468 232.303L66.1799 230.379L75.9883 229.843L75.8936 228.36L64.666 228.991L64.7607 230.284L66.2114 232.681L67.3468 232.303Z" fill="white"/>
<path fill-rule="evenodd" clip-rule="evenodd" d="M70.0276 217.007C73.8437 217.038 75.9567 218.457 75.9567 220.917C75.9567 223.125 73.8752 224.576 70.1537 224.639C66.3691 224.639 64.2876 222.999 64.3192 220.697C64.3191 218.3 66.4637 216.975 70.0276 217.007ZM70.1852 223.093C73.1183 223.125 74.7898 222.21 74.7898 220.823C74.7898 219.246 72.9922 218.52 70.0906 218.52C67.3153 218.52 65.486 219.214 65.486 220.791C65.4861 222.116 67.0945 223.093 70.1852 223.093Z" fill="white"/>
<path d="M67.1261 213.853L66.2114 211.803L76.0514 212.434L76.146 210.951L64.8868 210.226L64.7922 211.519L65.9591 214.074L67.1261 213.853Z" fill="white"/>
<path fill-rule="evenodd" clip-rule="evenodd" d="M71.6676 198.904C75.4837 199.377 77.4075 201.048 77.0606 203.54C76.7768 205.716 74.5375 206.946 70.8791 206.504C67.1261 206.031 65.2653 204.171 65.5491 201.868C65.833 199.503 68.1037 198.431 71.6676 198.904ZM71.0683 204.991C73.9699 205.369 75.736 204.675 75.9252 203.287C76.146 201.742 74.4114 200.764 71.5414 200.417C68.7976 200.071 66.8738 200.544 66.6845 202.121C66.5268 203.414 68.0407 204.612 71.0683 204.991Z" fill="white"/>
<path d="M69.2076 195.498L68.5138 193.353L78.2275 195.119L78.4798 193.668L67.4099 191.618L67.1576 192.88L68.0091 195.561L69.2076 195.498Z" fill="white"/>
<path fill-rule="evenodd" clip-rule="evenodd" d="M75.4837 181.211C79.2052 182.157 80.9082 184.049 80.2775 186.446C79.7413 188.559 77.3759 189.537 73.7491 188.622C70.0906 187.676 68.4822 185.626 69.0183 183.387C69.6175 181.085 71.9829 180.296 75.4837 181.211ZM74.1275 187.171C76.9659 187.865 78.7952 187.424 79.1421 186.068C79.5205 184.554 77.9436 183.418 75.1367 182.693C72.456 182.031 70.5321 182.252 70.1222 183.797C69.8383 185.09 71.1629 186.415 74.1275 187.171Z" fill="white"/>
<path d="M73.4022 177.552L72.9922 175.313L82.3906 178.278L82.8321 176.89L72.1092 173.484L71.6992 174.714L72.2038 177.489L73.4022 177.552Z" fill="white"/>
<path fill-rule="evenodd" clip-rule="evenodd" d="M81.3814 164.085C84.9768 165.473 86.4275 167.555 85.5129 169.857C84.7244 171.907 82.2645 172.538 78.7637 171.245C75.263 169.888 73.8753 167.618 74.6953 165.473C75.6099 163.297 78.0699 162.792 81.3814 164.085ZM79.3314 169.857C82.0752 170.898 83.936 170.677 84.4406 169.352C85.0083 167.902 83.5891 166.545 80.9083 165.505C78.3222 164.495 76.3668 164.495 75.8307 165.978C75.3261 167.239 76.493 168.722 79.3314 169.857Z" fill="white"/>
<path d="M79.8045 160.175L79.6783 157.904L88.6036 162.035L89.2344 160.711L78.9845 156.012L78.4483 157.179L78.6376 159.954L79.8045 160.175Z" fill="white"/>
<path fill-rule="evenodd" clip-rule="evenodd" d="M89.3921 147.812C92.7667 149.609 93.9652 151.88 92.7667 154.088C91.7259 156.012 89.2029 156.39 85.9229 154.624C82.6114 152.826 81.5391 150.429 82.6114 148.411C83.7152 146.298 86.2383 146.109 89.3921 147.812ZM86.6483 153.268C89.2344 154.655 91.1267 154.655 91.789 153.425C92.5144 152.069 91.2844 150.524 88.7298 149.168C86.2698 147.843 84.346 147.622 83.5891 149.01C82.9583 150.209 83.9675 151.849 86.6483 153.268Z" fill="white"/>
<path d="M88.2883 143.743L88.446 141.504L96.8351 146.676L97.592 145.415L88.0044 139.486L87.3421 140.589L87.1529 143.365L88.2883 143.743Z" fill="white"/>
<path fill-rule="evenodd" clip-rule="evenodd" d="M99.3266 132.642C102.48 134.849 103.364 137.246 101.913 139.265C100.62 141.063 98.0966 141.063 95.0374 138.949C91.9782 136.773 91.1898 134.219 92.5144 132.39C93.9021 130.434 96.3936 130.592 99.3266 132.642ZM95.952 137.719C98.3489 139.423 100.21 139.643 101.03 138.508C101.913 137.246 100.872 135.575 98.5066 133.903C96.2359 132.326 94.3436 131.822 93.429 133.115C92.6405 134.219 93.429 135.953 95.952 137.719Z" fill="white"/>
<path d="M98.7274 128.447L99.1689 126.24L106.896 132.389L107.81 131.223L99.0113 124.19L98.1913 125.199L97.6551 127.943L98.7274 128.447Z" fill="white"/>
<path fill-rule="evenodd" clip-rule="evenodd" d="M111.027 118.797C113.866 121.383 114.497 123.843 112.793 125.672C111.311 127.28 108.788 127.028 106.013 124.568C103.206 122.013 102.764 119.427 104.31 117.756C105.887 115.99 108.378 116.4 111.027 118.797ZM107.022 123.433C109.198 125.42 111.027 125.861 111.942 124.82C112.983 123.653 112.163 121.887 110.018 119.932C107.968 118.071 106.139 117.377 105.098 118.544C104.215 119.553 104.783 121.383 107.022 123.433Z" fill="white"/>
<path d="M110.964 114.507L111.658 112.363L118.47 119.364L119.543 118.355L111.721 110.281L110.807 111.196L109.955 113.877L110.964 114.507Z" fill="white"/>
<mask id="mask0_108_98" style="mask-type:luminance" maskUnits="userSpaceOnUse" x="13" y="26" width="198" height="395">
<path d="M210.766 26.4138H13.8938V420.114H210.766V26.4138Z" fill="white"/>
</mask>
<g mask="url(#mask0_108_98)">
<path d="M210.721 420.114C102.161 420.114 13.8491 331.802 13.8491 223.242C13.8491 114.681 102.161 26.3692 210.721 26.3692C319.282 26.3692 407.594 114.725 407.594 223.286C407.594 331.802 319.282 420.114 210.721 420.114ZM210.721 91.7109C138.199 91.7109 79.1461 150.719 79.1461 223.286C79.1461 295.809 138.154 354.861 210.721 354.861C283.289 354.861 342.297 295.853 342.297 223.286C342.297 150.719 283.289 91.7109 210.721 91.7109Z" fill="white"/>
</g>
<rect x="168.975" y="164" width="89.0506" height="113" rx="12" fill="#FFD4C5"/>
<rect x="182.266" y="186.468" width="37.8797" height="7.92982" rx="3.96491" fill="#F15B25"/>
<rect x="182.266" y="206.292" width="37.8797" height="7.92982" rx="3.96491" fill="#F15B25"/>
<rect x="182.266" y="245.942" width="51.1709" height="7.92982" rx="3.96491" fill="#F15B25"/>
<rect x="182.266" y="226.117" width="28.5759" height="7.92982" rx="3.96491" fill="#F15B25"/>
<rect x="215.494" y="226.117" width="28.5759" height="7.92982" rx="3.96491" fill="#F15B25"/>
<rect x="227.456" y="206.292" width="16.6139" height="7.92982" rx="3.96491" fill="#F15B25"/>
<rect x="162" y="204" width="103" height="13.9212" fill="url(#paint0_linear_108_98)"/>
<rect x="161" y="216.702" width="105" height="2.64327" rx="1.32164" fill="#F15B25"/>
<defs>
<linearGradient id="paint0_linear_108_98" x1="216.443" y1="217.921" x2="216.443" y2="204" gradientUnits="userSpaceOnUse">
<stop stop-color="#F15B25" stop-opacity="0.5"/>
<stop offset="1" stop-color="#F15B25" stop-opacity="0"/>
</linearGradient>
</defs>
</svg>
