<svg width="108" height="36" viewBox="0 0 108 36" fill="none" xmlns="http://www.w3.org/2000/svg">
<path d="M17.8217 0.198008L17.5854 0.321677L17.5481 0.185641L17.8341 0.0248718H17.9834L18.0083 1.33576H17.8341L17.8217 0.198008Z" fill="#1E1C1C"/>
<path d="M19.3763 0.704973C19.3515 1.15018 19.1773 1.38515 18.8913 1.37278C18.6301 1.36042 18.4685 1.11308 18.4809 0.680239C18.4933 0.235031 18.7048 6.03441e-05 18.9659 0.0124272C19.252 0.037161 19.3888 0.296865 19.3763 0.704973ZM18.655 0.704973C18.6426 1.05125 18.7421 1.24912 18.9037 1.24912C19.0903 1.26148 19.1773 1.05125 19.2022 0.71734C19.2147 0.395801 19.14 0.173197 18.9535 0.173197C18.7918 0.16083 18.6799 0.346333 18.655 0.704973Z" fill="#F15B25"/>
<path d="M19.9981 0.284427L19.7494 0.383362L19.7245 0.247326L20.023 0.123657L20.1722 0.136024L20.0478 1.44691L19.8737 1.43455L19.9981 0.284427Z" fill="#F15B25"/>
<path d="M21.4781 0.97698C21.4035 1.42219 21.2045 1.63243 20.906 1.58296C20.6573 1.54586 20.5205 1.27379 20.5827 0.840944C20.6573 0.408103 20.8812 0.197866 21.1423 0.247334C21.4408 0.296801 21.5527 0.568873 21.4781 0.97698ZM20.7692 0.878044C20.7195 1.21195 20.7817 1.42219 20.9433 1.44692C21.1299 1.47165 21.2418 1.28615 21.304 0.952246C21.3537 0.630707 21.304 0.408103 21.1299 0.383369C20.9682 0.358635 20.8314 0.531772 20.7692 0.878044Z" fill="#F15B25"/>
<path d="M22.1496 0.643077L21.8884 0.717279V0.581243L22.1993 0.494675L22.3486 0.531775L22.0625 1.7932L21.8884 1.7561L22.1496 0.643077Z" fill="#F15B25"/>
<path d="M23.5425 1.50876C23.4182 1.9416 23.1819 2.12711 22.9083 2.04054C22.6595 1.96634 22.56 1.69427 22.6844 1.27379C22.8088 0.853319 23.0575 0.667816 23.3187 0.742017C23.5798 0.828585 23.6669 1.10066 23.5425 1.50876ZM22.8461 1.32326C22.7466 1.6448 22.7963 1.8674 22.9456 1.91687C23.1197 1.96634 23.2689 1.7932 23.356 1.47166C23.443 1.16249 23.4306 0.939887 23.2565 0.878052C23.1197 0.828585 22.9456 0.976987 22.8461 1.32326Z" fill="#F15B25"/>
<path d="M24.2515 1.24903L23.9903 1.28613L24.0028 1.1501L24.3261 1.10063L24.4754 1.1501L24.0276 2.38679L23.866 2.32495L24.2515 1.24903Z" fill="#F15B25"/>
<path d="M25.52 2.27551C25.3459 2.68361 25.0847 2.84438 24.8236 2.73308C24.5873 2.63415 24.5251 2.33734 24.6868 1.9416C24.8609 1.53349 25.1345 1.38509 25.3832 1.49639C25.6444 1.60769 25.6941 1.89213 25.52 2.27551ZM24.8609 2.0158C24.7241 2.32497 24.7489 2.54758 24.8982 2.60941C25.0599 2.68361 25.234 2.52284 25.3708 2.21367C25.4951 1.91687 25.5076 1.69426 25.3335 1.62006C25.1842 1.55823 24.9977 1.6819 24.8609 2.0158Z" fill="#F15B25"/>
<path d="M26.2538 2.10235H25.9926L26.0175 1.96632L26.3408 1.95395L26.4776 2.02815L25.8807 3.203L25.7314 3.1288L26.2538 2.10235Z" fill="#F15B25"/>
<path d="M27.3979 3.27721C27.1741 3.66058 26.9004 3.79662 26.6517 3.64821C26.4279 3.51218 26.403 3.22774 26.6144 2.84437C26.8383 2.46099 27.1243 2.34969 27.3606 2.48573C27.5969 2.63413 27.6093 2.91857 27.3979 3.27721ZM26.7636 2.9433C26.5895 3.24011 26.5771 3.46271 26.7263 3.53691C26.888 3.62348 27.0621 3.48744 27.2362 3.20301C27.3979 2.91857 27.4352 2.69596 27.2735 2.60939C27.1367 2.52283 26.9502 2.63413 26.7636 2.9433Z" fill="#F15B25"/>
<path d="M28.1441 3.20302L27.883 3.17829L27.9327 3.04225L28.2561 3.07935L28.3804 3.16592L27.6467 4.25421L27.4974 4.15527L28.1441 3.20302Z" fill="#F15B25"/>
<path d="M29.1266 4.51389C28.853 4.87253 28.5669 4.9591 28.3431 4.78597C28.1441 4.6252 28.1441 4.32839 28.4052 3.98212C28.6789 3.63585 28.9773 3.56164 29.1888 3.72241C29.4002 3.88318 29.3753 4.17999 29.1266 4.51389ZM28.542 4.09342C28.3306 4.36549 28.2933 4.5881 28.4301 4.67466C28.5794 4.78597 28.7783 4.67466 28.9773 4.40259C29.1763 4.14289 29.2385 3.93265 29.0893 3.82135C28.9649 3.72241 28.7659 3.80898 28.542 4.09342Z" fill="#F15B25"/>
<path d="M29.8728 4.5139L29.6116 4.45207L29.6738 4.3284L29.9971 4.4026L30.1091 4.50154L29.2385 5.49089L29.1141 5.37958L29.8728 4.5139Z" fill="#F15B25"/>
<path d="M30.6936 5.93611C30.3827 6.25765 30.0842 6.31949 29.8728 6.10925C29.6862 5.92375 29.736 5.63931 30.0344 5.31777C30.3454 5.0086 30.6563 4.95913 30.8428 5.14463C31.0542 5.3425 30.9921 5.62694 30.6936 5.93611ZM30.1712 5.44144C29.9349 5.68877 29.8728 5.89901 29.9847 6.01031C30.1215 6.13398 30.3329 6.04741 30.5568 5.81244C30.7806 5.57747 30.8677 5.36724 30.7433 5.24357C30.6314 5.13227 30.42 5.1941 30.1712 5.44144Z" fill="#F15B25"/>
<path d="M31.4398 6.03503L31.1911 5.94846L31.2657 5.83716L31.5766 5.94846L31.6761 6.05976L30.6936 6.93781L30.5817 6.81414L31.4398 6.03503Z" fill="#F15B25"/>
<path d="M32.0741 7.53142C31.7259 7.81586 31.4274 7.84059 31.2408 7.60562C31.0792 7.40775 31.1538 7.12331 31.502 6.85124C31.8502 6.57917 32.1611 6.57917 32.3228 6.77704C32.4969 6.99964 32.4099 7.27172 32.0741 7.53142ZM31.6139 6.98728C31.3403 7.19751 31.2533 7.40775 31.3652 7.53142C31.4771 7.66746 31.701 7.60562 31.9622 7.39539C32.2109 7.19751 32.3353 6.99964 32.2109 6.85124C32.1114 6.73994 31.9 6.76467 31.6139 6.98728Z" fill="#F15B25"/>
<path d="M32.8079 7.71694L32.5716 7.59327L32.6586 7.48196L32.9571 7.63037L33.0442 7.75404L31.9622 8.50842L31.8627 8.37238L32.8079 7.71694Z" fill="#F15B25"/>
<path d="M33.2556 9.28754C32.8701 9.52251 32.5716 9.51014 32.4224 9.2628C32.2856 9.0402 32.3975 8.76813 32.7706 8.53316C33.1437 8.29819 33.4546 8.33529 33.5914 8.55789C33.7407 8.80523 33.6163 9.0773 33.2556 9.28754ZM32.8701 8.69393C32.5841 8.87943 32.4721 9.06493 32.5468 9.20097C32.6462 9.36174 32.8701 9.31227 33.1561 9.13913C33.4298 8.966 33.5666 8.79286 33.4795 8.63209C33.3924 8.50842 33.1686 8.50842 32.8701 8.69393Z" fill="#F15B25"/>
<path d="M33.952 9.55959L33.7282 9.41119L33.8277 9.31226L34.1013 9.49776L34.1759 9.63379L33.0069 10.2521L32.9198 10.1037L33.952 9.55959Z" fill="#F15B25"/>
<path d="M34.2132 11.1797C33.8028 11.3652 33.5168 11.3157 33.3924 11.056C33.2805 10.821 33.4297 10.5613 33.8277 10.3758C34.2257 10.1903 34.5366 10.2645 34.6485 10.4995C34.748 10.7592 34.5988 10.9942 34.2132 11.1797ZM33.8899 10.5366C33.579 10.685 33.4422 10.8581 33.5168 11.0065C33.5914 11.1673 33.8277 11.1673 34.1262 11.0189C34.4247 10.8829 34.5863 10.7221 34.4993 10.5489C34.4371 10.4129 34.2257 10.3882 33.8899 10.5366Z" fill="#F15B25"/>
<path d="M34.8724 11.5383L34.6734 11.3652L34.7853 11.2786L35.0341 11.4888L35.0838 11.6249L33.8526 12.0948L33.7904 11.934L34.8724 11.5383Z" fill="#F15B25"/>
<path d="M34.9346 13.1707C34.5117 13.3067 34.2257 13.2202 34.1262 12.9481C34.0516 12.7008 34.2257 12.4658 34.6361 12.3298C35.059 12.1937 35.345 12.305 35.4321 12.5524C35.5191 12.8121 35.3326 13.047 34.9346 13.1707ZM34.6983 12.4905C34.3749 12.5895 34.2133 12.7502 34.263 12.911C34.3128 13.0841 34.5491 13.1089 34.8724 12.9976C35.1833 12.8986 35.3574 12.7626 35.3077 12.5771C35.2579 12.4411 35.0341 12.3916 34.6983 12.4905Z" fill="#F15B25"/>
<path d="M35.544 13.6036L35.3699 13.4057L35.4943 13.3439L35.7181 13.5788L35.7554 13.7272L34.4744 14.0488L34.4371 13.888L35.544 13.6036Z" fill="#F15B25"/>
<path d="M35.3947 15.2236C34.947 15.3102 34.6734 15.1865 34.6236 14.9021C34.5739 14.6547 34.7853 14.4321 35.2081 14.3456C35.6434 14.259 35.917 14.4074 35.9668 14.6671C36.0289 14.9515 35.8051 15.1494 35.3947 15.2236ZM35.2454 14.5311C34.9096 14.5929 34.7355 14.7289 34.7604 14.8897C34.7977 15.0629 35.0216 15.1123 35.3574 15.0505C35.6807 14.9886 35.8673 14.865 35.8424 14.6918C35.8051 14.5434 35.5937 14.4692 35.2454 14.5311Z" fill="#F15B25"/>
<path d="M35.9419 15.7307L35.7927 15.5204L35.9295 15.471L36.116 15.7307L36.1409 15.8791L34.8351 16.0398L34.8102 15.8667L35.9419 15.7307Z" fill="#F15B25"/>
<path d="M35.6061 17.326C35.1584 17.3507 34.8972 17.2023 34.8848 16.9179C34.8723 16.6582 35.0962 16.4727 35.5315 16.4356C35.9792 16.4108 36.2279 16.584 36.2404 16.8437C36.2652 17.1281 36.0289 17.3013 35.6061 17.326ZM35.5439 16.6211C35.1957 16.6458 35.0091 16.7571 35.0216 16.9179C35.034 17.1034 35.2579 17.1776 35.5937 17.1529C35.917 17.1281 36.1284 17.0416 36.116 16.856C36.0911 16.6953 35.9046 16.5963 35.5439 16.6211Z" fill="#F15B25"/>
<path d="M34.0516 26.2672V26.0075L34.1884 26.0446V26.3662L34.1137 26.5022L32.9447 25.8839L33.0193 25.7355L34.0516 26.2672Z" fill="#F15B25"/>
<path d="M32.8576 27.3803C32.4721 27.1453 32.3477 26.8732 32.497 26.6259C32.6338 26.4033 32.9323 26.3786 33.3054 26.6012C33.6785 26.8361 33.7904 27.1206 33.6536 27.3432C33.5043 27.5905 33.2059 27.5905 32.8576 27.3803ZM33.2059 26.7619C32.9074 26.5888 32.696 26.5764 32.6089 26.7125C32.5094 26.8732 32.6462 27.0464 32.9447 27.2319C33.2183 27.405 33.4422 27.4421 33.5417 27.2813C33.6163 27.1453 33.5168 26.9474 33.2059 26.7619Z" fill="#F15B25"/>
<path d="M32.9198 28.1223L32.9571 27.8626L33.0939 27.9121L33.0566 28.2336L32.9696 28.3573L31.8876 27.6029L31.9871 27.4668L32.9198 28.1223Z" fill="#F15B25"/>
<path d="M31.6016 29.0745C31.2533 28.8025 31.1538 28.518 31.3404 28.2831C31.5021 28.0852 31.8005 28.0976 32.1488 28.3573C32.497 28.6293 32.5716 28.9261 32.3975 29.1364C32.2234 29.3713 31.9249 29.3342 31.6016 29.0745ZM32.0244 28.5057C31.7508 28.2954 31.5394 28.2583 31.4399 28.382C31.328 28.5304 31.4399 28.7283 31.7011 28.9261C31.9622 29.124 32.1736 29.1982 32.2856 29.0498C32.3851 28.9385 32.3104 28.7283 32.0244 28.5057Z" fill="#F15B25"/>
<path d="M31.5766 29.8289L31.6388 29.5692L31.7632 29.6311L31.6886 29.9526L31.5891 30.0639L30.6066 29.1858L30.7185 29.0622L31.5766 29.8289Z" fill="#F15B25"/>
<path d="M30.1464 30.6204C29.8355 30.2989 29.7733 30.0144 29.9847 29.8042C30.1713 29.6187 30.4573 29.6682 30.7682 29.9773C31.0791 30.2865 31.1165 30.5957 30.9299 30.7812C30.7309 30.979 30.4449 30.9172 30.1464 30.6204ZM30.6439 30.101C30.4076 29.8537 30.1837 29.7918 30.0718 29.9031C29.9474 30.0268 30.0345 30.237 30.2708 30.4844C30.4946 30.7193 30.706 30.8059 30.8428 30.6822C30.9423 30.5709 30.8926 30.3607 30.6439 30.101Z" fill="#F15B25"/>
<path d="M30.0345 31.3624L30.134 31.1151L30.2459 31.1893L30.134 31.4985L30.0221 31.5974L29.1515 30.608L29.2759 30.4967L30.0345 31.3624Z" fill="#F15B25"/>
<path d="M28.5048 31.9808C28.2312 31.6221 28.2063 31.3377 28.4426 31.1522C28.6416 30.9914 28.9277 31.078 29.2013 31.4242C29.4749 31.7705 29.4749 32.0797 29.2635 32.2405C29.0396 32.4012 28.766 32.3023 28.5048 31.9808ZM29.0645 31.5232C28.8531 31.2511 28.6541 31.1645 28.5173 31.2635C28.368 31.3748 28.4302 31.5974 28.6416 31.8571C28.8406 32.1168 29.0396 32.2281 29.1888 32.1168C29.3132 32.0179 29.2883 31.8076 29.0645 31.5232Z" fill="#F15B25"/>
<path d="M28.3058 32.698L28.4302 32.4631L28.5297 32.5496L28.3805 32.8341L28.2561 32.9207L27.5099 31.8324L27.6467 31.7334L28.3058 32.698Z" fill="#F15B25"/>
<path d="M26.7264 33.1185C26.4901 32.7351 26.5149 32.4383 26.7637 32.2899C26.9875 32.1539 27.2611 32.2776 27.485 32.6486C27.7088 33.0319 27.6715 33.3288 27.4477 33.4648C27.1989 33.6132 26.9378 33.4772 26.7264 33.1185ZM27.3358 32.7351C27.1616 32.4383 26.9751 32.327 26.8258 32.4136C26.6642 32.5125 26.7015 32.7351 26.8756 33.0196C27.0373 33.2917 27.2238 33.4401 27.3855 33.3411C27.5099 33.2669 27.5099 33.0443 27.3358 32.7351Z" fill="#F15B25"/>
<path d="M26.4404 33.811L26.5896 33.6008L26.6766 33.6997L26.4901 33.9718L26.3533 34.046L25.7439 32.8835L25.8931 32.8093L26.4404 33.811Z" fill="#F15B25"/>
<path d="M24.8111 34.046C24.6245 33.6379 24.6867 33.3411 24.9479 33.2298C25.1842 33.1309 25.4454 33.2793 25.6195 33.675C25.7936 34.0831 25.719 34.3799 25.4827 34.4789C25.2339 34.5902 24.9852 34.4294 24.8111 34.046ZM25.4578 33.7369C25.321 33.4277 25.1469 33.2916 24.9976 33.3535C24.836 33.4277 24.836 33.6503 24.9728 33.9595C25.1096 34.2563 25.2712 34.417 25.4329 34.3428C25.5822 34.281 25.607 34.0584 25.4578 33.7369Z" fill="#F15B25"/>
<path d="M24.4504 34.6891L24.6245 34.4912L24.6991 34.6025L24.4877 34.8499L24.3509 34.8994L23.8907 33.6627L24.0524 33.6008L24.4504 34.6891Z" fill="#F15B25"/>
<path d="M22.8088 34.7262C22.6844 34.2934 22.7715 34.0089 23.0451 33.9347C23.2938 33.8605 23.5301 34.046 23.6545 34.4541C23.7789 34.8746 23.6669 35.159 23.4182 35.2456C23.1446 35.3198 22.9207 35.1219 22.8088 34.7262ZM23.4804 34.5036C23.3809 34.1821 23.2192 34.0213 23.07 34.0708C22.8959 34.1202 22.871 34.3552 22.9705 34.6767C23.07 34.9859 23.2068 35.1714 23.3809 35.1096C23.5301 35.0601 23.5923 34.8375 23.4804 34.5036Z" fill="#F15B25"/>
<path d="M22.3611 35.3198L22.5601 35.1467L22.6222 35.2704L22.3735 35.4806L22.2243 35.5177L21.9258 34.2439L22.0999 34.2068L22.3611 35.3198Z" fill="#F15B25"/>
<path d="M20.7195 35.1591C20.6449 34.7139 20.7692 34.4541 21.0553 34.4047C21.304 34.3552 21.5279 34.5655 21.6025 34.9983C21.6771 35.4311 21.5279 35.7032 21.2667 35.7527C20.9931 35.7898 20.7941 35.5672 20.7195 35.1591ZM21.4284 35.023C21.3662 34.6891 21.2294 34.516 21.0677 34.5407C20.8936 34.5654 20.8314 34.8004 20.8936 35.122C20.9433 35.4435 21.0677 35.6414 21.2543 35.6043C21.4035 35.5795 21.4906 35.3693 21.4284 35.023Z" fill="#F15B25"/>
<path d="M20.2095 35.7032L20.4334 35.5548L20.4831 35.6908L20.2095 35.8763L20.0603 35.8887L19.911 34.5778L20.0851 34.5531L20.2095 35.7032Z" fill="#F15B25"/>
<path d="M18.6052 35.3322C18.5803 34.887 18.742 34.6273 19.028 34.6149C19.2892 34.6025 19.4757 34.8375 19.5006 35.2704C19.5255 35.7156 19.3389 35.9629 19.0778 35.9753C18.7917 35.9876 18.6176 35.7527 18.6052 35.3322ZM19.3141 35.2827C19.3016 34.9364 19.1773 34.7509 19.0156 34.7633C18.829 34.7757 18.7544 34.9859 18.7668 35.3198C18.7793 35.6414 18.8788 35.8516 19.0653 35.8392C19.227 35.8269 19.3389 35.6414 19.3141 35.2827Z" fill="#F15B25"/>
<path d="M18.0207 35.8145L18.257 35.6908L18.2943 35.8269L18.0083 35.9753H17.859L17.8839 34.6644H18.058L18.0207 35.8145Z" fill="#F15B25"/>
<path d="M17.7844 2.54758L17.5854 2.65888L17.5481 2.54758L17.7968 2.41154H17.9336L17.9585 3.5493H17.8093L17.7844 2.54758Z" fill="#1E1C1C"/>
<path d="M19.14 2.98041C19.1276 3.36379 18.9659 3.57402 18.7171 3.56166C18.4933 3.54929 18.344 3.33905 18.3689 2.95568C18.3814 2.57231 18.5555 2.37444 18.7918 2.37444C19.0281 2.39917 19.1524 2.62177 19.14 2.98041ZM18.5182 2.98041C18.5057 3.27722 18.5928 3.45035 18.7296 3.45035C18.8913 3.46272 18.9659 3.27722 18.9783 2.98041C18.9907 2.69597 18.9286 2.51047 18.7669 2.51047C18.6301 2.51047 18.5306 2.67124 18.5182 2.98041Z" fill="#006934"/>
<path d="M19.6748 2.62178L19.4634 2.70834L19.4509 2.58468L19.7121 2.47337L19.8489 2.48574L19.737 3.62349L19.5877 3.61113L19.6748 2.62178Z" fill="#006934"/>
<path d="M20.9683 3.21538C20.9061 3.59875 20.732 3.78426 20.4708 3.74716C20.2469 3.71005 20.135 3.47508 20.1972 3.10408C20.2594 2.7207 20.4584 2.54757 20.6822 2.58467C20.9185 2.63414 21.0305 2.85674 20.9683 3.21538ZM20.3464 3.14118C20.2967 3.43798 20.3589 3.61112 20.4957 3.63585C20.6574 3.66059 20.7569 3.48745 20.8066 3.20301C20.8563 2.93094 20.8066 2.73307 20.6574 2.70834C20.5206 2.6836 20.3962 2.83201 20.3464 3.14118Z" fill="#006934"/>
<path d="M21.5527 2.91858L21.3288 2.98042V2.85675L21.6024 2.78255L21.7268 2.80728L21.4656 3.9203L21.3164 3.8832L21.5527 2.91858Z" fill="#006934"/>
<path d="M22.7591 3.67295C22.6471 4.04396 22.4481 4.20473 22.2119 4.14289C22.0004 4.08106 21.9134 3.83372 22.0129 3.47508C22.1248 3.10407 22.3362 2.95567 22.5601 3.01751C22.7839 3.07934 22.8586 3.32668 22.7591 3.67295ZM22.1497 3.51218C22.0626 3.79662 22.0999 3.98212 22.2367 4.01922C22.386 4.06869 22.5103 3.90792 22.5974 3.62348C22.672 3.35141 22.6596 3.15354 22.5103 3.11644C22.386 3.09171 22.2367 3.21538 22.1497 3.51218Z" fill="#006934"/>
<path d="M23.3685 3.45034L23.1447 3.48744L23.1571 3.36378L23.4431 3.32668L23.5675 3.37614L23.182 4.45206L23.0452 4.40259L23.3685 3.45034Z" fill="#006934"/>
<path d="M24.4753 4.34078C24.3261 4.69942 24.1022 4.83545 23.8659 4.73652C23.6545 4.64995 23.6048 4.39024 23.754 4.04397C23.9032 3.6977 24.1395 3.56166 24.3634 3.6606C24.5748 3.75953 24.6246 4.00687 24.4753 4.34078ZM23.8908 4.11817C23.7664 4.39024 23.7913 4.57575 23.9157 4.63758C24.0649 4.69942 24.2017 4.56338 24.3261 4.29131C24.438 4.0316 24.4505 3.83373 24.3012 3.7719C24.1768 3.72243 24.0152 3.83373 23.8908 4.11817Z" fill="#006934"/>
<path d="M25.1096 4.19235H24.8857L24.9106 4.06868H25.1966L25.3086 4.13051L24.7862 5.1446L24.6494 5.08276L25.1096 4.19235Z" fill="#006934"/>
<path d="M26.0921 5.21883C25.8932 5.55273 25.6569 5.66403 25.4454 5.54037C25.2464 5.42906 25.234 5.16936 25.4206 4.84782C25.6196 4.51391 25.8683 4.41498 26.0673 4.53865C26.2787 4.64995 26.2787 4.90965 26.0921 5.21883ZM25.5449 4.92202C25.3957 5.18173 25.3833 5.36723 25.5076 5.44143C25.6444 5.51563 25.8061 5.40433 25.9553 5.14463C26.1046 4.89729 26.1295 4.71178 25.9926 4.62522C25.8807 4.56338 25.7066 4.64995 25.5449 4.92202Z" fill="#006934"/>
<path d="M26.7389 5.14463L26.515 5.11989L26.5523 5.00859L26.8384 5.03332L26.9503 5.10753L26.316 6.04741L26.1917 5.96084L26.7389 5.14463Z" fill="#006934"/>
<path d="M27.597 6.28238C27.3607 6.59155 27.112 6.67812 26.913 6.51735C26.7389 6.38131 26.7389 6.12161 26.9752 5.8248C27.2115 5.51563 27.4727 5.45379 27.6592 5.58983C27.8458 5.73823 27.8209 5.99794 27.597 6.28238ZM27.0996 5.92374C26.913 6.15871 26.8881 6.34421 27.0001 6.43078C27.1244 6.52971 27.2985 6.43078 27.4727 6.19581C27.6468 5.9732 27.6965 5.7877 27.5721 5.68876C27.4602 5.6022 27.2861 5.6764 27.0996 5.92374Z" fill="#006934"/>
<path d="M28.2561 6.29474L28.0322 6.24527L28.082 6.13397L28.3556 6.19581L28.4551 6.28238L27.7089 7.14806L27.5969 7.04912L28.2561 6.29474Z" fill="#006934"/>
<path d="M28.965 7.51906C28.6914 7.79113 28.4426 7.85297 28.2561 7.66747C28.0944 7.5067 28.1317 7.25936 28.3929 6.98729C28.6665 6.71522 28.9277 6.67812 29.0894 6.83888C29.2759 7.01202 29.2137 7.25936 28.965 7.51906ZM28.5048 7.09859C28.2934 7.30883 28.2437 7.49433 28.3432 7.59326C28.4551 7.70457 28.6416 7.63036 28.8406 7.42013C29.0396 7.22226 29.1142 7.03675 29.0023 6.92545C28.9152 6.82652 28.7287 6.87599 28.5048 7.09859Z" fill="#006934"/>
<path d="M29.6117 7.60565L29.4003 7.53145L29.4625 7.43251L29.7361 7.53145L29.8231 7.63038L28.9774 8.39713L28.8779 8.28583L29.6117 7.60565Z" fill="#006934"/>
<path d="M30.1714 8.90415C29.8729 9.15149 29.6118 9.16385 29.4501 8.96598C29.3133 8.79285 29.3755 8.54551 29.6739 8.31054C29.9724 8.07557 30.246 8.0632 30.3828 8.2487C30.5321 8.44657 30.445 8.68154 30.1714 8.90415ZM29.761 8.43421C29.5247 8.61971 29.4501 8.79285 29.5371 8.90415C29.6366 9.02782 29.8232 8.96598 30.0595 8.79285C30.2833 8.61971 30.3828 8.44657 30.2833 8.3229C30.1963 8.2116 30.0097 8.2487 29.761 8.43421Z" fill="#006934"/>
<path d="M30.7932 9.07729L30.5942 8.97835L30.6689 8.89178L30.9176 9.01545L30.9922 9.12676L30.0595 9.7822L29.9724 9.65853L30.7932 9.07729Z" fill="#006934"/>
<path d="M31.1912 10.4376C30.8554 10.6355 30.5942 10.6355 30.4699 10.4129C30.358 10.2274 30.445 9.98007 30.7684 9.7822C31.0917 9.58433 31.3653 9.60906 31.4897 9.80693C31.6141 10.0172 31.5021 10.2521 31.1912 10.4376ZM30.8554 9.91823C30.6067 10.079 30.5072 10.2398 30.5818 10.3634C30.6689 10.4995 30.8679 10.4624 31.1166 10.314C31.3529 10.1656 31.4773 10.0048 31.3902 9.86877C31.3031 9.75746 31.1166 9.75746 30.8554 9.91823Z" fill="#006934"/>
<path d="M31.8006 10.6726L31.6141 10.5489L31.7011 10.4624L31.9374 10.6231L31.9996 10.7344L30.9922 11.2786L30.9176 11.1426L31.8006 10.6726Z" fill="#006934"/>
<path d="M32.0245 12.0701C31.6762 12.2309 31.4151 12.1937 31.3031 11.9588C31.2036 11.7609 31.3404 11.5259 31.6762 11.3652C32.0245 11.2044 32.2856 11.2662 32.3851 11.4765C32.4846 11.7114 32.3478 11.9217 32.0245 12.0701ZM31.7384 11.5136C31.4648 11.6372 31.3529 11.7856 31.4151 11.9217C31.4773 12.0701 31.6762 12.0577 31.9498 11.934C32.211 11.8227 32.3478 11.6743 32.2732 11.5259C32.2235 11.4146 32.0245 11.3899 31.7384 11.5136Z" fill="#006934"/>
<path d="M32.5966 12.3916L32.4225 12.2432L32.5219 12.169L32.7334 12.3545L32.7831 12.4782L31.7136 12.8863L31.6638 12.7503L32.5966 12.3916Z" fill="#006934"/>
<path d="M32.6462 13.8014C32.2731 13.9127 32.0244 13.8509 31.9498 13.6036C31.8876 13.3933 32.0368 13.1831 32.3975 13.0718C32.7581 12.9605 33.0193 13.0471 33.0815 13.2697C33.1561 13.5046 32.9944 13.6901 32.6462 13.8014ZM32.4348 13.2202C32.1487 13.3068 32.0119 13.4428 32.0617 13.5788C32.1114 13.7272 32.3104 13.7396 32.584 13.653C32.8576 13.5665 33.0069 13.4428 32.9571 13.2944C32.9198 13.1707 32.7333 13.1213 32.4348 13.2202Z" fill="#006934"/>
<path d="M33.1686 14.1848L33.0193 14.0117L33.1313 13.9498L33.3178 14.1601L33.3551 14.2837L32.2482 14.5682L32.2109 14.4198L33.1686 14.1848Z" fill="#006934"/>
<path d="M30.843 26.1436C30.5072 25.9457 30.3953 25.7107 30.5321 25.4881C30.644 25.3026 30.9052 25.2779 31.2285 25.4758C31.5519 25.6736 31.6514 25.921 31.527 26.1189C31.4026 26.3291 31.1539 26.3291 30.843 26.1436ZM31.1415 25.6118C30.8927 25.4634 30.6937 25.451 30.6191 25.5623C30.5321 25.6984 30.6564 25.8591 30.9052 26.0076C31.1415 26.156 31.3404 26.1931 31.4275 26.057C31.5021 25.9334 31.4151 25.7726 31.1415 25.6118Z" fill="#006934"/>
<path d="M30.9052 26.7867L30.9301 26.5641L31.042 26.6012L31.0047 26.8856L30.9301 26.9969L29.9849 26.3415L30.0719 26.2178L30.9052 26.7867Z" fill="#006934"/>
<path d="M29.7485 27.6276C29.4376 27.3926 29.3629 27.1453 29.5246 26.9474C29.6614 26.7743 29.9226 26.7867 30.2211 27.0093C30.5195 27.2442 30.5817 27.5039 30.4449 27.6894C30.2833 27.8749 30.0345 27.8502 29.7485 27.6276ZM30.1216 27.1206C29.8853 26.9351 29.6987 26.9103 29.6117 27.0093C29.5122 27.1329 29.6117 27.3061 29.8355 27.4916C30.0594 27.6647 30.2459 27.7265 30.3454 27.6029C30.4325 27.4916 30.3703 27.3184 30.1216 27.1206Z" fill="#006934"/>
<path d="M29.7361 28.2707L29.7858 28.0481L29.8978 28.1099L29.8356 28.382L29.7485 28.4809L28.8904 27.7265L28.9899 27.6152L29.7361 28.2707Z" fill="#006934"/>
<path d="M28.4924 28.9632C28.2188 28.6912 28.169 28.4315 28.3431 28.2583C28.5048 28.0976 28.7536 28.147 29.0272 28.4067C29.3008 28.6788 29.3256 28.9385 29.164 29.1116C28.9898 29.2724 28.7411 29.2106 28.4924 28.9632ZM28.9152 28.5057C28.7038 28.2954 28.5173 28.246 28.4178 28.3449C28.3058 28.4562 28.3805 28.6417 28.5919 28.8519C28.7909 29.0498 28.9774 29.1364 29.0893 29.0127C29.1888 28.9138 29.1391 28.7283 28.9152 28.5057Z" fill="#006934"/>
<path d="M28.3929 29.6063L28.48 29.3961L28.5795 29.4703L28.48 29.73L28.3805 29.8165L27.6218 28.9632L27.7338 28.8643L28.3929 29.6063Z" fill="#006934"/>
<path d="M27.0622 30.1381C26.8259 29.8289 26.801 29.5692 27 29.4208C27.1741 29.2848 27.4228 29.359 27.6591 29.6558C27.8954 29.9526 27.8954 30.2247 27.7089 30.3731C27.5348 30.5091 27.286 30.4225 27.0622 30.1381ZM27.5472 29.7424C27.3606 29.5074 27.1865 29.4332 27.0746 29.5198C26.9502 29.6187 27 29.8042 27.1865 30.0392C27.3606 30.2618 27.5348 30.3607 27.6591 30.2618C27.7586 30.1752 27.7337 29.9897 27.5472 29.7424Z" fill="#006934"/>
<path d="M26.9006 30.7564L27.0125 30.5586L27.0995 30.6328L26.9627 30.8801L26.8508 30.9543L26.2041 30.0144L26.3285 29.9279L26.9006 30.7564Z" fill="#006934"/>
<path d="M25.5201 31.1274C25.3211 30.7935 25.3335 30.5338 25.5574 30.4102C25.744 30.2989 25.9927 30.3978 26.1792 30.7193C26.3782 31.0532 26.3409 31.3129 26.1419 31.4366C25.9305 31.5603 25.7067 31.449 25.5201 31.1274ZM26.0424 30.7935C25.8932 30.5338 25.7191 30.4473 25.6072 30.5091C25.4704 30.5957 25.4952 30.7812 25.6569 31.0409C25.8061 31.2758 25.9554 31.3995 26.0922 31.3253C26.2041 31.2511 26.2041 31.0656 26.0424 30.7935Z" fill="#006934"/>
<path d="M25.2713 31.7334L25.4081 31.5479L25.4952 31.6345L25.3335 31.8695L25.2216 31.9313L24.6992 30.9172L24.836 30.843L25.2713 31.7334Z" fill="#006934"/>
<path d="M23.8536 31.9313C23.6919 31.5727 23.7416 31.3253 23.9779 31.2264C24.1769 31.1398 24.4008 31.2635 24.5625 31.6098C24.7241 31.956 24.6495 32.2157 24.4381 32.3147C24.2142 32.4012 24.0028 32.2652 23.8536 31.9313ZM24.4257 31.6592C24.3013 31.3871 24.152 31.2758 24.0277 31.3253C23.8784 31.3871 23.8909 31.585 24.0028 31.8571C24.1147 32.1168 24.264 32.2528 24.4008 32.191C24.5251 32.1415 24.55 31.9437 24.4257 31.6592Z" fill="#006934"/>
<path d="M23.5426 32.5002L23.6919 32.327L23.7665 32.426L23.58 32.6362L23.4556 32.6857L23.0576 31.6221L23.1944 31.5726L23.5426 32.5002Z" fill="#006934"/>
<path d="M22.1124 32.5249C22.0004 32.1539 22.075 31.9066 22.3238 31.8324C22.5352 31.7705 22.7466 31.9189 22.8586 32.2899C22.9705 32.6609 22.871 32.9083 22.6471 32.9701C22.4108 33.0319 22.2118 32.8712 22.1124 32.5249ZM22.7093 32.327C22.6223 32.0426 22.4855 31.9066 22.3487 31.9437C22.1994 31.9931 22.1745 32.191 22.2616 32.4631C22.3486 32.7351 22.4606 32.8835 22.6223 32.8464C22.7466 32.8093 22.7964 32.6238 22.7093 32.327Z" fill="#006934"/>
<path d="M21.7269 33.0443L21.901 32.8959L21.9632 33.0072L21.7517 33.1927L21.6274 33.2174L21.3662 32.1044L21.5154 32.0673L21.7269 33.0443Z" fill="#006934"/>
<path d="M20.309 32.8959C20.2469 32.5125 20.3464 32.2776 20.5951 32.2405C20.8189 32.2034 21.0055 32.3889 21.0677 32.7599C21.1299 33.1309 21.0055 33.3782 20.7816 33.4153C20.5329 33.4401 20.3588 33.2546 20.309 32.8959ZM20.9184 32.7722C20.8687 32.4754 20.7443 32.327 20.6075 32.3518C20.4458 32.3765 20.4085 32.5744 20.4583 32.8588C20.508 33.1309 20.6075 33.304 20.7692 33.2793C20.8936 33.2669 20.9682 33.0814 20.9184 32.7722Z" fill="#006934"/>
<path d="M19.8489 33.3658L20.0355 33.2422L20.0728 33.3535L19.8365 33.5143L19.6997 33.5266L19.5753 32.3889L19.7246 32.3765L19.8489 33.3658Z" fill="#006934"/>
<path d="M18.4685 33.0567C18.4436 32.6733 18.5804 32.4507 18.8416 32.4383C19.0654 32.426 19.2271 32.6238 19.252 33.0072C19.2768 33.3906 19.1152 33.6132 18.8789 33.6132C18.6301 33.6256 18.4809 33.4153 18.4685 33.0567ZM19.0903 33.0072C19.0779 32.7104 18.9784 32.5496 18.8291 32.5496C18.6675 32.562 18.6053 32.7475 18.6177 33.0319C18.6301 33.3164 18.7172 33.4895 18.8789 33.4895C19.0157 33.4895 19.1027 33.3164 19.0903 33.0072Z" fill="#006934"/>
<path d="M17.9586 33.4648L18.1575 33.3658L18.1824 33.4895L17.9337 33.6132H17.7969L17.8217 32.4754H17.971L17.9586 33.4648Z" fill="#006934"/>
<path d="M24.4878 20.9C24.4878 22.7798 22.7839 24.0288 20.222 24.0288H15.5707V12.54H20.1598C22.3984 12.54 23.8411 13.653 23.8411 15.3844C23.8411 16.72 23.1073 17.697 21.7144 18.068C23.555 18.3895 24.4878 19.416 24.4878 20.9ZM16.4164 13.2944V17.8083H19.8365C21.8761 17.8083 23.0327 16.9303 23.0327 15.4586C23.0327 14.1353 21.8761 13.2944 20.0976 13.2944H16.4164ZM23.6421 20.8135C23.6421 19.3665 22.386 18.5379 20.222 18.5379H16.4164V23.2745H20.1847C22.2989 23.2621 23.6421 22.2727 23.6421 20.8135Z" fill="#1E1C1C"/>
<path d="M34.1635 19.4778V24.0165H33.3427V19.5026C33.3427 17.7836 32.2856 16.8561 30.7807 16.8561C29.6366 16.8561 28.5173 17.4002 27.8208 18.3772V24.0165H27V12.0206H27.8208V17.3384C28.5546 16.5222 29.6614 16.0893 30.8927 16.0893C32.8204 16.1017 34.1635 17.3507 34.1635 19.4778Z" fill="#1E1C1C"/>
<path d="M44.3243 16.3119V24.0289H43.5034V23.0024C42.7572 23.7815 41.7374 24.2391 40.4938 24.2391C38.2303 24.2391 36.4146 22.4459 36.4146 20.1827C36.4146 17.9196 38.2303 16.114 40.4938 16.114C41.7374 16.114 42.7572 16.5716 43.5034 17.3631V16.3119H44.3243ZM43.5034 21.9512V18.4019C42.807 17.3878 41.7748 16.8684 40.5808 16.8684C38.7153 16.8684 37.2727 18.3524 37.2727 20.1827C37.2727 22.013 38.7153 23.4723 40.5808 23.4723C41.7748 23.4723 42.807 22.9653 43.5034 21.9512Z" fill="#1E1C1C"/>
<path d="M51.3634 16.0893V16.8684C50.0327 16.8808 48.901 17.6475 48.217 18.909V24.0288H47.4086V16.3119H48.2294V17.8207C48.9383 16.7448 50.0825 16.0893 51.3634 16.0893Z" fill="#1E1C1C"/>
<path d="M60.5417 16.3119V24.0289H59.7209V23.0024C58.9747 23.7815 57.9548 24.2391 56.7112 24.2391C54.4477 24.2391 52.632 22.4459 52.632 20.1827C52.632 17.9196 54.4477 16.114 56.7112 16.114C57.9548 16.114 58.9747 16.5716 59.7209 17.3631V16.3119H60.5417ZM59.7333 21.9512V18.4019C59.0368 17.3878 58.0046 16.8684 56.8107 16.8684C54.9452 16.8684 53.5025 18.3524 53.5025 20.1827C53.5025 22.013 54.9452 23.4723 56.8107 23.4723C57.9922 23.4723 59.0368 22.9653 59.7333 21.9512Z" fill="#1E1C1C"/>
<path d="M68.4389 23.9917C67.8668 24.1649 67.332 24.2267 66.9216 24.2267C65.1183 24.2267 64.3224 23.2992 64.3224 21.271V17.0292H62.1086V16.2995H64.3224V13.4181H65.1556V16.3119H68.1156V17.0416H65.1556V21.2834C65.1556 22.854 65.7028 23.4847 66.9963 23.4847C67.4067 23.4847 67.8793 23.361 68.327 23.2126L68.4389 23.9917Z" fill="#1E1C1C"/>
<path d="M82.3058 18.2783C82.3058 21.5926 79.6195 24.2267 76.2864 24.2267C72.9534 24.2267 70.2671 21.5926 70.2671 18.2783C70.2671 14.9639 72.9534 12.3298 76.2864 12.3298C79.6195 12.3298 82.3058 14.9763 82.3058 18.2783ZM80.4527 18.2783C80.4527 15.9286 78.6494 14.0241 76.2864 14.0241C73.9235 14.0241 72.1202 15.9286 72.1202 18.2783C72.1202 20.628 73.9235 22.5201 76.2864 22.5201C78.6494 22.5201 80.4527 20.628 80.4527 18.2783Z" fill="#F15B25"/>
<path d="M93.9963 19.6634H95.8866C95.3394 22.4212 93.1879 24.2391 90.3026 24.2391C86.9696 24.2391 84.3081 21.7039 84.3081 18.2783C84.3081 14.8279 86.9696 12.3298 90.3026 12.3298C93.1879 12.3298 95.3519 14.123 95.8866 16.8684H93.9963C93.5361 15.1 92.2178 14.0117 90.2901 14.0117C87.9272 14.0117 86.1487 15.7801 86.1487 18.2659C86.1487 20.7269 87.9272 22.5201 90.2901 22.5201C92.2178 22.5448 93.5361 21.4565 93.9963 19.6634Z" fill="#2C2C6F"/>
<path d="M102.764 20.1456H100.103V24.0288H98.2621V12.54H102.901C105.488 12.54 107.353 14.024 107.353 16.3366C107.353 18.0433 106.333 19.3047 104.766 19.8488L108 24.0165H105.761L102.764 20.1456ZM100.09 18.4637H102.826C104.368 18.4637 105.55 17.6475 105.55 16.3366C105.55 15.0258 104.381 14.2095 102.826 14.2095H100.09V18.4637Z" fill="#006934"/>
<mask id="mask0_21_9911" style="mask-type:luminance" maskUnits="userSpaceOnUse" x="0" y="0" width="19" height="36">
<path d="M18.0953 0H0V36H18.0953V0Z" fill="white"/>
</mask>
<g mask="url(#mask0_21_9911)">
<path d="M18.0953 36.0125C8.12114 36.0125 0 27.9369 0 18.0187C0 8.10045 8.12114 0.0248718 18.0953 0.0248718C28.0695 0.0248718 36.1907 8.10045 36.1907 18.0187C36.1907 27.9369 28.0695 36.0125 18.0953 36.0125ZM18.0953 3.92044C10.2727 3.92044 3.91755 10.2399 3.91755 18.0187C3.91755 25.7975 10.2727 32.1169 18.0953 32.1169C25.918 32.1169 32.2731 25.7975 32.2731 18.0187C32.2731 10.2399 25.9056 3.92044 18.0953 3.92044Z" fill="#F15B25"/>
</g>
</svg>
