<svg width="279" height="93" viewBox="0 0 279 93" fill="none" xmlns="http://www.w3.org/2000/svg">
<path d="M46.0395 0.511538L45.429 0.831016L45.3326 0.479591L46.0716 0.06427H46.4571L46.5214 3.45074H46.0716L46.0395 0.511538Z" fill="#1E1C1C"/>
<path d="M50.0556 1.82128C49.9913 2.9714 49.5415 3.57841 48.8026 3.54646C48.1279 3.51451 47.7102 2.87556 47.7423 1.75739C47.7745 0.607266 48.3206 0.000257608 48.9953 0.0322054C49.7343 0.096101 50.0877 0.767004 50.0556 1.82128ZM48.1921 1.82128C48.16 2.71582 48.417 3.22698 48.8347 3.22698C49.3166 3.25893 49.5415 2.71582 49.6058 1.85323C49.6379 1.02259 49.4451 0.447528 48.9632 0.447528C48.5455 0.41558 48.2564 0.894795 48.1921 1.82128Z" fill="#F15B25"/>
<path d="M51.6618 0.734779L51.0192 0.990361L50.955 0.638936L51.726 0.319458L52.1116 0.351405L51.7903 3.73787L51.3405 3.70592L51.6618 0.734779Z" fill="#F15B25"/>
<path d="M55.4852 2.52393C55.2924 3.67405 54.7784 4.21716 54.0073 4.08937C53.3647 3.99353 53.0113 3.29067 53.172 2.1725C53.3647 1.05433 53.9431 0.511215 54.6177 0.639006C55.3888 0.766797 55.678 1.46965 55.4852 2.52393ZM53.6539 2.26834C53.5254 3.13093 53.686 3.67405 54.1037 3.73794C54.5856 3.80184 54.8748 3.32262 55.0354 2.46003C55.1639 1.62939 55.0354 1.05433 54.5856 0.990431C54.168 0.926536 53.8145 1.3738 53.6539 2.26834Z" fill="#F15B25"/>
<path d="M57.2199 1.66114L56.5452 1.85283V1.50141L57.3484 1.27777L57.7339 1.37361L56.995 4.63229L56.5452 4.53645L57.2199 1.66114Z" fill="#F15B25"/>
<path d="M60.8182 3.89782C60.4969 5.01599 59.8864 5.49521 59.1796 5.27158C58.5371 5.07989 58.28 4.37704 58.6013 3.29081C58.9226 2.20459 59.5652 1.72537 60.2399 1.91706C60.9145 2.14069 61.1394 2.84354 60.8182 3.89782ZM59.019 3.4186C58.762 4.24925 58.8905 4.82431 59.276 4.9521C59.7258 5.07989 60.1113 4.63262 60.3362 3.80198C60.5611 3.00328 60.529 2.42822 60.0792 2.26848C59.7258 2.14069 59.276 2.52406 59.019 3.4186Z" fill="#F15B25"/>
<path d="M62.6498 3.22663L61.9751 3.32248L62.0072 2.97105L62.8425 2.84326L63.2281 2.97105L62.0715 6.16583L61.6538 6.00609L62.6498 3.22663Z" fill="#F15B25"/>
<path d="M65.9268 5.87839C65.477 6.93266 64.8023 7.34799 64.1276 7.06045C63.5172 6.80487 63.3565 6.03812 63.7742 5.0158C64.224 3.96152 64.9308 3.57814 65.5734 3.86567C66.248 4.15321 66.3766 4.88801 65.9268 5.87839ZM64.224 5.20748C63.8706 6.00618 63.9348 6.58124 64.3204 6.74098C64.738 6.93266 65.1878 6.51734 65.5412 5.71865C65.8625 4.9519 65.8946 4.37684 65.4448 4.18515C65.0593 4.02541 64.5774 4.34489 64.224 5.20748Z" fill="#F15B25"/>
<path d="M67.8224 5.43116H67.1477L67.212 5.07974L68.0473 5.04779L68.4007 5.23948L66.8586 8.27452L66.473 8.08283L67.8224 5.43116Z" fill="#F15B25"/>
<path d="M70.778 8.46634C70.1997 9.45672 69.4929 9.80814 68.8503 9.42477C68.272 9.07334 68.2078 8.33854 68.7539 7.34816C69.3322 6.35778 70.0712 6.07025 70.6816 6.42168C71.292 6.80505 71.3242 7.53985 70.778 8.46634ZM69.1395 7.60375C68.6897 8.37049 68.6576 8.94555 69.0431 9.13724C69.4608 9.36087 69.9105 9.00945 70.3603 8.27465C70.778 7.53985 70.8744 6.96479 70.4567 6.74115C70.1033 6.51752 69.6214 6.80505 69.1395 7.60375Z" fill="#F15B25"/>
<path d="M72.7057 8.27445L72.031 8.21056L72.1595 7.85913L72.9948 7.95498L73.3161 8.17861L71.4206 10.99L71.035 10.7344L72.7057 8.27445Z" fill="#F15B25"/>
<path d="M75.2437 11.661C74.5369 12.5875 73.798 12.8111 73.2197 12.3639C72.7056 11.9485 72.7056 11.1818 73.3803 10.2873C74.0871 9.39272 74.8582 9.20104 75.4044 9.61636C75.9506 10.0317 75.8863 10.7984 75.2437 11.661ZM73.7337 10.5748C73.1875 11.2776 73.0912 11.8527 73.4446 12.0763C73.8301 12.3639 74.3441 12.0763 74.8582 11.3735C75.3722 10.7026 75.5329 10.1595 75.1474 9.87194C74.8261 9.61636 74.312 9.83999 73.7337 10.5748Z" fill="#F15B25"/>
<path d="M77.1714 11.6609L76.4967 11.5011L76.6573 11.1816L77.4926 11.3733L77.7818 11.6289L75.5328 14.1847L75.2115 13.8972L77.1714 11.6609Z" fill="#F15B25"/>
<path d="M79.2918 15.335C78.4886 16.1657 77.7175 16.3254 77.1713 15.7823C76.6894 15.3031 76.8179 14.5683 77.589 13.7376C78.3922 12.9389 79.1954 12.8112 79.6773 13.2904C80.2235 13.8015 80.0629 14.5363 79.2918 15.335ZM77.9424 14.0571C77.332 14.6961 77.1713 15.2392 77.4605 15.5267C77.8139 15.8462 78.3601 15.6226 78.9384 15.0156C79.5167 14.4085 79.7416 13.8654 79.4203 13.546C79.1312 13.2584 78.585 13.4182 77.9424 14.0571Z" fill="#F15B25"/>
<path d="M81.2195 15.5906L80.577 15.3669L80.7697 15.0794L81.5729 15.3669L81.83 15.6545L79.2918 17.9228L79.0027 17.6033L81.2195 15.5906Z" fill="#F15B25"/>
<path d="M82.8581 19.4563C81.9585 20.1911 81.1874 20.255 80.7055 19.648C80.2878 19.1368 80.4806 18.402 81.3802 17.6992C82.2798 16.9963 83.083 16.9963 83.5006 17.5075C83.9504 18.0825 83.7255 18.7854 82.8581 19.4563ZM81.6693 18.0506C80.9625 18.5937 80.7376 19.1368 81.0268 19.4563C81.3159 19.8077 81.8942 19.648 82.5689 19.1049C83.2115 18.5937 83.5328 18.0825 83.2115 17.6992C82.9544 17.4116 82.4083 17.4755 81.6693 18.0506Z" fill="#F15B25"/>
<path d="M84.7536 19.9354L84.1432 19.6159L84.3681 19.3284L85.1392 19.7117L85.3641 20.0312L82.5689 21.98L82.3119 21.6286L84.7536 19.9354Z" fill="#F15B25"/>
<path d="M85.9105 23.993C84.9145 24.6 84.1435 24.568 83.7579 23.9291C83.4045 23.354 83.6937 22.6511 84.6575 22.0441C85.6213 21.4371 86.4245 21.533 86.7779 22.108C87.1635 22.747 86.8422 23.4498 85.9105 23.993ZM84.9145 22.4595C84.1756 22.9387 83.8864 23.4179 84.0792 23.7693C84.3362 24.1846 84.9145 24.0569 85.6535 23.6096C86.3603 23.1623 86.7137 22.715 86.4888 22.2997C86.2639 21.9802 85.6856 21.9802 84.9145 22.4595Z" fill="#F15B25"/>
<path d="M87.7093 24.6957L87.131 24.3123L87.3881 24.0567L88.0949 24.5359L88.2877 24.8873L85.2676 26.4847L85.0427 26.1014L87.7093 24.6957Z" fill="#F15B25"/>
<path d="M88.3842 28.8808C87.324 29.36 86.5851 29.2322 86.2638 28.5613C85.9746 27.9543 86.3602 27.2834 87.3883 26.8042C88.4164 26.325 89.2196 26.5166 89.5087 27.1236C89.7658 27.7946 89.3802 28.4016 88.3842 28.8808ZM87.5489 27.2195C86.7457 27.6029 86.3923 28.0501 86.5851 28.4335C86.7778 28.8488 87.3883 28.8488 88.1594 28.4655C88.9304 28.114 89.3481 27.6987 89.1232 27.2514C88.9626 26.9 88.4164 26.8361 87.5489 27.2195Z" fill="#F15B25"/>
<path d="M90.0871 29.8073L89.5731 29.36L89.8622 29.1364L90.5048 29.6795L90.6333 30.0309L87.4526 31.2449L87.292 30.8296L90.0871 29.8073Z" fill="#F15B25"/>
<path d="M90.2478 34.0245C89.1554 34.3759 88.4165 34.1523 88.1594 33.4494C87.9667 32.8105 88.4165 32.2034 89.4767 31.852C90.569 31.5006 91.308 31.7881 91.5329 32.4271C91.7578 33.098 91.2759 33.705 90.2478 34.0245ZM89.6373 32.2673C88.802 32.5229 88.3843 32.9382 88.5128 33.3536C88.6414 33.8008 89.2518 33.8647 90.0871 33.5772C90.8903 33.3216 91.3401 32.9702 91.2116 32.491C91.0831 32.1395 90.5048 32.0118 89.6373 32.2673Z" fill="#F15B25"/>
<path d="M91.822 35.1427L91.3723 34.6315L91.6935 34.4718L92.2718 35.0788L92.3682 35.4622L89.059 36.2928L88.9626 35.8775L91.822 35.1427Z" fill="#F15B25"/>
<path d="M91.4362 39.3277C90.2796 39.5514 89.5728 39.2319 89.4443 38.4971C89.3157 37.8581 89.8619 37.2831 90.9543 37.0594C92.0787 36.8358 92.7856 37.2192 92.9141 37.8901C93.0747 38.6249 92.4964 39.136 91.4362 39.3277ZM91.0507 37.5387C90.1832 37.6984 89.7334 38.0498 89.7977 38.4651C89.894 38.9124 90.4723 39.0402 91.3398 38.8805C92.1751 38.7207 92.6571 38.4012 92.5928 37.954C92.4964 37.5706 91.9502 37.3789 91.0507 37.5387Z" fill="#F15B25"/>
<path d="M92.8499 40.6376L92.4644 40.0945L92.8178 39.9667L93.2997 40.6376L93.364 41.0209L89.9905 41.4363L89.9263 40.989L92.8499 40.6376Z" fill="#F15B25"/>
<path d="M91.9824 44.7589C90.8258 44.8228 90.1511 44.4395 90.1189 43.7047C90.0868 43.0338 90.6651 42.5545 91.7896 42.4587C92.9462 42.3948 93.5888 42.8421 93.6209 43.513C93.6852 44.2478 93.0747 44.695 91.9824 44.7589ZM91.8217 42.9379C90.9222 43.0018 90.4402 43.2893 90.4724 43.7047C90.5045 44.1839 91.0828 44.3756 91.9502 44.3117C92.7856 44.2478 93.3318 44.0241 93.2996 43.5449C93.2354 43.1296 92.7535 42.874 91.8217 42.9379Z" fill="#F15B25"/>
<path d="M87.9666 67.8571V67.1862L88.32 67.2821V68.1127L88.1272 68.4642L85.1072 66.8668L85.2999 66.4834L87.9666 67.8571Z" fill="#F15B25"/>
<path d="M84.8823 70.7325C83.8864 70.1255 83.5651 69.4226 83.9506 68.7837C84.304 68.2086 85.0751 68.1447 86.0389 68.7198C87.0028 69.3268 87.2919 70.0616 86.9385 70.6366C86.553 71.2756 85.7819 71.2756 84.8823 70.7325ZM85.7819 69.1351C85.0108 68.6878 84.4647 68.6559 84.2398 69.0073C83.9827 69.4226 84.3362 69.8699 85.1072 70.3491C85.814 70.7964 86.3923 70.8922 86.6494 70.4769C86.8421 70.1255 86.5851 69.6143 85.7819 69.1351Z" fill="#F15B25"/>
<path d="M85.0428 72.6492L85.1392 71.9783L85.4926 72.1061L85.3963 72.9367L85.1714 73.2562L82.3762 71.3074L82.6332 70.9559L85.0428 72.6492Z" fill="#F15B25"/>
<path d="M81.6374 75.1092C80.7378 74.4064 80.4808 73.6716 80.9627 73.0645C81.3804 72.5534 82.1514 72.5853 83.051 73.2562C83.9506 73.9591 84.1434 74.7258 83.6936 75.2689C83.2438 75.876 82.4727 75.7801 81.6374 75.1092ZM82.7297 73.6396C82.0229 73.0965 81.4767 73.0006 81.2197 73.3201C80.9306 73.7035 81.2197 74.2147 81.8944 74.7258C82.5691 75.237 83.1153 75.4287 83.4044 75.0453C83.6614 74.7578 83.4687 74.2147 82.7297 73.6396Z" fill="#F15B25"/>
<path d="M81.573 77.058L81.7337 76.3871L82.0549 76.5469L81.8622 77.3775L81.6051 77.665L79.067 75.3967L79.3562 75.0773L81.573 77.058Z" fill="#F15B25"/>
<path d="M77.8781 79.1027C77.0749 78.2721 76.9143 77.5373 77.4605 76.9942C77.9424 76.515 78.6813 76.6427 79.4845 77.4414C80.2878 78.2401 80.3841 79.0388 79.9022 79.518C79.3882 80.0292 78.6492 79.8695 77.8781 79.1027ZM79.1633 77.7609C78.5528 77.122 77.9745 76.9622 77.6854 77.2497C77.3641 77.5692 77.589 78.1123 78.1994 78.7513C78.7777 79.3583 79.3239 79.5819 79.6773 79.2625C79.9343 78.9749 79.8058 78.4318 79.1633 77.7609Z" fill="#F15B25"/>
<path d="M77.5891 81.0195L77.8461 80.3806L78.1352 80.5723L77.8461 81.371L77.5569 81.6266L75.308 79.0707L75.6293 78.7832L77.5891 81.0195Z" fill="#F15B25"/>
<path d="M73.6375 82.617C72.9306 81.6906 72.8664 80.9557 73.4768 80.4765C73.9909 80.0612 74.7298 80.2848 75.4366 81.1794C76.1434 82.0739 76.1434 82.8726 75.5973 83.2879C75.019 83.7033 74.3121 83.4477 73.6375 82.617ZM75.0832 81.435C74.537 80.7321 74.023 80.5085 73.6696 80.7641C73.284 81.0516 73.4447 81.6267 73.9909 82.2976C74.5049 82.9685 75.019 83.256 75.4045 82.9685C75.7258 82.7129 75.6615 82.1698 75.0832 81.435Z" fill="#F15B25"/>
<path d="M73.1235 84.47L73.4447 83.8629L73.7018 84.0866L73.3162 84.8214L72.9949 85.045L71.0673 82.2336L71.4207 81.978L73.1235 84.47Z" fill="#F15B25"/>
<path d="M69.0431 85.556C68.4327 84.5656 68.4969 83.7989 69.1395 83.4155C69.7178 83.0641 70.4246 83.3835 71.0029 84.342C71.5812 85.3324 71.4848 86.0991 70.9065 86.4505C70.264 86.8339 69.5893 86.4825 69.0431 85.556ZM70.6174 84.5656C70.1676 83.7989 69.6857 83.5113 69.3001 83.735C68.8825 83.9906 68.9789 84.5656 69.4286 85.3004C69.8463 86.0033 70.3282 86.3866 70.7459 86.1311C71.0672 85.9394 71.0672 85.3643 70.6174 84.5656Z" fill="#F15B25"/>
<path d="M68.3043 87.3453L68.6898 86.8022L68.9147 87.0578L68.4328 87.7607L68.0794 87.9523L66.5051 84.9493L66.8907 84.7576L68.3043 87.3453Z" fill="#F15B25"/>
<path d="M64.0953 87.9524C63.6134 86.8982 63.774 86.1314 64.4487 85.8439C65.0591 85.5883 65.7338 85.9717 66.1836 86.994C66.6334 88.0483 66.4406 88.815 65.8302 89.0706C65.1876 89.3581 64.5451 88.9428 64.0953 87.9524ZM65.7659 87.1537C65.4125 86.355 64.9627 86.0036 64.5772 86.1634C64.1595 86.3551 64.1595 86.9301 64.513 87.7288C64.8664 88.4956 65.284 88.9109 65.7017 88.7192C66.0872 88.5594 66.1515 87.9844 65.7659 87.1537Z" fill="#F15B25"/>
<path d="M63.1635 89.6136L63.6133 89.1025L63.8061 89.39L63.2599 90.029L62.9065 90.1568L61.7178 86.962L62.1354 86.8022L63.1635 89.6136Z" fill="#F15B25"/>
<path d="M58.9228 89.7094C58.6016 88.5913 58.8265 87.8565 59.5333 87.6648C60.1758 87.4731 60.7863 87.9523 61.1075 89.0066C61.4288 90.0928 61.1397 90.8276 60.4971 91.0512C59.7903 91.2429 59.212 90.7318 58.9228 89.7094ZM60.6578 89.1344C60.4007 88.3037 59.9831 87.8884 59.5975 88.0162C59.1477 88.144 59.0835 88.751 59.3405 89.5816C59.5975 90.3803 59.9509 90.8596 60.4007 90.6998C60.7863 90.572 60.9469 89.997 60.6578 89.1344Z" fill="#F15B25"/>
<path d="M57.7661 91.2429L58.2801 90.7956L58.4408 91.1151L57.7982 91.6582L57.4127 91.754L56.6416 88.4634L57.0914 88.3676L57.7661 91.2429Z" fill="#F15B25"/>
<path d="M53.5253 90.8277C53.3326 89.6776 53.6538 89.0067 54.3928 88.8789C55.0353 88.7511 55.6137 89.2943 55.8064 90.4124C55.9992 91.5306 55.6136 92.2335 54.939 92.3612C54.2321 92.4571 53.7181 91.882 53.5253 90.8277ZM55.3566 90.4763C55.196 89.6137 54.8426 89.1665 54.4249 89.2304C53.9751 89.2942 53.8145 89.9013 53.9751 90.7319C54.1036 91.5625 54.4249 92.0737 54.9068 91.9779C55.2924 91.914 55.5173 91.3709 55.3566 90.4763Z" fill="#F15B25"/>
<path d="M52.2078 92.2334L52.7861 91.85L52.9147 92.2014L52.2078 92.6806L51.8223 92.7126L51.4368 89.3261L51.8866 89.2622L52.2078 92.2334Z" fill="#F15B25"/>
<path d="M48.0634 91.2751C47.9991 90.125 48.4168 89.454 49.1557 89.4221C49.8304 89.3902 50.3123 89.9972 50.3766 91.1153C50.4408 92.2655 49.9589 92.9044 49.2842 92.9364C48.5453 92.9683 48.0955 92.3613 48.0634 91.2751ZM49.8947 91.1473C49.8625 90.2527 49.5413 89.7735 49.1236 89.8055C48.6417 89.8374 48.4489 90.3805 48.481 91.2431C48.5132 92.0738 48.7702 92.6169 49.2521 92.5849C49.6698 92.553 49.9589 92.0738 49.8947 91.1473Z" fill="#F15B25"/>
<path d="M46.5534 92.5207L47.1638 92.2012L47.2602 92.5527L46.5213 92.936H46.1357L46.2 89.5496H46.6498L46.5534 92.5207Z" fill="#F15B25"/>
<path d="M45.9431 6.5811L45.429 6.86863L45.3326 6.5811L45.9752 6.22968H46.3286L46.3929 9.16887H46.0073L45.9431 6.5811Z" fill="#1E1C1C"/>
<path d="M49.445 7.69935C49.4128 8.68973 48.9952 9.23285 48.3526 9.2009C47.7743 9.16895 47.3888 8.62584 47.453 7.63546C47.4852 6.64508 47.9349 6.13391 48.5454 6.13391C49.1558 6.19781 49.4771 6.77287 49.445 7.69935ZM47.8386 7.69935C47.8064 8.4661 48.0313 8.91337 48.3847 8.91337C48.8024 8.94532 48.9952 8.4661 49.0273 7.69935C49.0594 6.96455 48.8988 6.48534 48.4811 6.48534C48.1277 6.48534 47.8707 6.90066 47.8386 7.69935Z" fill="#006934"/>
<path d="M50.8266 6.77296L50.2804 6.9966L50.2483 6.67712L50.923 6.38959L51.2764 6.42153L50.9872 9.36073L50.6017 9.32878L50.8266 6.77296Z" fill="#006934"/>
<path d="M54.1681 8.30633C54.0075 9.29671 53.5577 9.77593 52.883 9.68009C52.3047 9.58424 52.0156 8.97723 52.1762 8.0188C52.3368 7.02842 52.8509 6.58115 53.4292 6.67699C54.0396 6.80478 54.3288 7.37984 54.1681 8.30633ZM52.5617 8.11464C52.4332 8.88139 52.5939 9.32866 52.9473 9.39255C53.3649 9.45645 53.622 9.00918 53.7505 8.27438C53.879 7.57153 53.7505 7.06037 53.3649 6.99647C53.0115 6.93257 52.6902 7.31595 52.5617 8.11464Z" fill="#006934"/>
<path d="M55.6779 7.53947L55.0996 7.69921V7.37974L55.8064 7.18805L56.1277 7.25194L55.453 10.1272L55.0675 10.0314L55.6779 7.53947Z" fill="#006934"/>
<path d="M58.7943 9.4885C58.5051 10.4469 57.9911 10.8623 57.3806 10.7025C56.8345 10.5428 56.6096 9.90382 56.8666 8.97733C57.1557 8.0189 57.7019 7.63553 58.2802 7.79527C58.8585 7.95501 59.0513 8.59396 58.7943 9.4885ZM57.22 9.07318C56.9951 9.80798 57.0915 10.2872 57.4449 10.383C57.8304 10.5108 58.1517 10.0955 58.3766 9.36071C58.5694 8.65786 58.5372 8.14669 58.1517 8.05085C57.8304 7.98695 57.4449 8.30643 57.22 9.07318Z" fill="#006934"/>
<path d="M60.3687 8.91335L59.7903 9.00919L59.8225 8.68971L60.5614 8.59387L60.8827 8.72166L59.8867 11.5011L59.5333 11.3733L60.3687 8.91335Z" fill="#006934"/>
<path d="M63.2286 11.2141C62.8429 12.1409 62.2644 12.4924 61.6538 12.2368C61.1074 12.013 60.9789 11.3419 61.3645 10.4471C61.7502 9.55222 62.3608 9.20067 62.9393 9.45634C63.4857 9.71201 63.6143 10.3512 63.2286 11.2141ZM61.7181 10.6388C61.3967 11.3419 61.4609 11.8213 61.7823 11.9811C62.168 12.1409 62.5215 11.7893 62.8429 11.0862C63.1322 10.4151 63.1643 9.90377 62.7786 9.74397C62.4573 9.61614 62.0394 9.90377 61.7181 10.6388Z" fill="#006934"/>
<path d="M64.8664 10.83H64.288L64.3523 10.5106H65.0912L65.3804 10.6703L64.031 13.29L63.6776 13.1303L64.8664 10.83Z" fill="#006934"/>
<path d="M67.4048 13.4818C66.8907 14.3444 66.2803 14.6319 65.7341 14.3124C65.2201 14.0249 65.188 13.354 65.6699 12.5234C66.1839 11.6608 66.8265 11.4052 67.3405 11.7247C67.8867 12.0122 67.8867 12.6831 67.4048 13.4818ZM65.9912 12.715C65.6056 13.386 65.5735 13.8652 65.8948 14.0569C66.2482 14.2485 66.6658 13.961 67.0514 13.2901C67.4369 12.6511 67.5012 12.1719 67.1478 11.9483C66.8586 11.7886 66.4088 12.0122 65.9912 12.715Z" fill="#006934"/>
<path d="M69.0754 13.2902L68.4971 13.2263L68.5935 12.9388L69.3324 13.0027L69.6216 13.1944L67.983 15.6224L67.6617 15.3988L69.0754 13.2902Z" fill="#006934"/>
<path d="M71.2923 16.2293C70.6819 17.0279 70.0393 17.2516 69.5252 16.8363C69.0755 16.4848 69.0755 15.8139 69.6859 15.0472C70.2963 14.2485 70.971 14.0888 71.4529 14.4402C71.9348 14.8235 71.8706 15.4945 71.2923 16.2293ZM70.0072 15.3028C69.5252 15.9098 69.461 16.389 69.7501 16.6126C70.0714 16.8682 70.5212 16.6126 70.971 16.0056C71.4208 15.4306 71.5493 14.9513 71.228 14.6958C70.9389 14.4721 70.4891 14.6638 70.0072 15.3028Z" fill="#006934"/>
<path d="M72.9948 16.2613L72.4165 16.1335L72.545 15.8459L73.2518 16.0057L73.5088 16.2293L71.5811 18.4657L71.292 18.2101L72.9948 16.2613Z" fill="#006934"/>
<path d="M74.8262 19.4244C74.1194 20.1272 73.4768 20.2869 72.9949 19.8077C72.5772 19.3924 72.6736 18.7535 73.3483 18.0506C74.0551 17.3478 74.7298 17.2519 75.1475 17.6672C75.6294 18.1145 75.4687 18.7535 74.8262 19.4244ZM73.6374 18.3381C73.0913 18.8812 72.9627 19.3605 73.2198 19.616C73.5089 19.9036 73.9908 19.7119 74.5049 19.1688C75.0189 18.6576 75.2117 18.1784 74.9226 17.8909C74.6977 17.6353 74.2157 17.7631 73.6374 18.3381Z" fill="#006934"/>
<path d="M76.4969 19.648L75.9507 19.4563L76.1113 19.2007L76.8182 19.4563L77.0431 19.7119L74.8583 21.6927L74.6013 21.4051L76.4969 19.648Z" fill="#006934"/>
<path d="M77.9428 23.0025C77.1717 23.6415 76.497 23.6734 76.0794 23.1623C75.726 22.715 75.8866 22.076 76.6577 21.469C77.4287 20.862 78.1356 20.8301 78.489 21.3093C78.8745 21.8204 78.6496 22.4275 77.9428 23.0025ZM76.8826 21.7885C76.2721 22.2677 76.0794 22.715 76.3043 23.0025C76.5613 23.322 77.0432 23.1623 77.6536 22.715C78.2319 22.2677 78.489 21.8204 78.2319 21.501C78.007 21.2134 77.5251 21.3093 76.8826 21.7885Z" fill="#006934"/>
<path d="M79.5493 23.4496L79.0352 23.194L79.228 22.9704L79.8706 23.2899L80.0633 23.5774L77.6537 25.2706L77.4288 24.9512L79.5493 23.4496Z" fill="#006934"/>
<path d="M80.5773 26.9638C79.7099 27.4749 79.0352 27.4749 78.7139 26.8999C78.4248 26.4206 78.6497 25.7817 79.485 25.2705C80.3203 24.7594 81.0271 24.8233 81.3484 25.3344C81.6697 25.8775 81.3805 26.4845 80.5773 26.9638ZM79.7099 25.6219C79.0673 26.0373 78.8103 26.4526 79.0031 26.7721C79.228 27.1235 79.742 27.0276 80.3846 26.6443C80.995 26.2609 81.3163 25.8456 81.0914 25.4942C80.8665 25.2066 80.3846 25.2066 79.7099 25.6219Z" fill="#006934"/>
<path d="M82.1516 27.5708L81.6697 27.2513L81.8946 27.0277L82.505 27.443L82.6656 27.7306L80.0633 29.1363L79.8705 28.7848L82.1516 27.5708Z" fill="#006934"/>
<path d="M82.7299 31.1809C81.8303 31.5963 81.1557 31.5004 80.8665 30.8934C80.6095 30.3823 80.9629 29.7752 81.8304 29.3599C82.7299 28.9446 83.4046 29.1043 83.6617 29.6475C83.9187 30.2545 83.5653 30.7976 82.7299 31.1809ZM81.991 29.7433C81.2842 30.0628 80.995 30.4461 81.1557 30.7976C81.3163 31.1809 81.8304 31.149 82.5372 30.8295C83.2119 30.542 83.5653 30.1586 83.3725 29.7752C83.244 29.4877 82.7299 29.4238 81.991 29.7433Z" fill="#006934"/>
<path d="M84.2078 32.0116L83.758 31.6282L84.0151 31.4365L84.5612 31.9157L84.6897 32.2352L81.9267 33.2895L81.7982 32.9381L84.2078 32.0116Z" fill="#006934"/>
<path d="M84.3361 35.6536C83.3722 35.9411 82.7297 35.7814 82.5369 35.1424C82.3763 34.5993 82.7618 34.0562 83.6935 33.7687C84.6252 33.4811 85.2999 33.7048 85.4605 34.2798C85.6533 34.8868 85.2356 35.3661 84.3361 35.6536ZM83.7899 34.152C83.0509 34.3757 82.6975 34.7271 82.8261 35.0785C82.9546 35.4619 83.4686 35.4938 84.1754 35.2702C84.8822 35.0466 85.2678 34.7271 85.1393 34.3437C85.0429 34.0243 84.561 33.8965 83.7899 34.152Z" fill="#006934"/>
<path d="M85.6854 36.6441L85.2999 36.1968L85.589 36.0371L86.071 36.5802L86.1673 36.8997L83.3079 37.6345L83.2115 37.2511L85.6854 36.6441Z" fill="#006934"/>
<path d="M79.6776 67.5375C78.8102 67.0264 78.521 66.4194 78.8744 65.8443C79.1636 65.3651 79.8383 65.3012 80.6736 65.8123C81.5089 66.3235 81.766 66.9625 81.4447 67.4736C81.1234 68.0167 80.4808 68.0167 79.6776 67.5375ZM80.4487 66.1638C79.8062 65.7804 79.2921 65.7484 79.0993 66.036C78.8744 66.3874 79.1957 66.8027 79.8383 67.1861C80.4487 67.5695 80.9628 67.6653 81.1877 67.3139C81.3804 66.9944 81.1555 66.5791 80.4487 66.1638Z" fill="#006934"/>
<path d="M79.8384 69.199L79.9027 68.6239L80.1918 68.7198L80.0954 69.4545L79.9027 69.7421L77.4609 68.0488L77.6858 67.7294L79.8384 69.199Z" fill="#006934"/>
<path d="M76.8502 71.3714C76.047 70.7644 75.8543 70.1254 76.2719 69.6143C76.6254 69.167 77.3 69.1989 78.0711 69.774C78.8422 70.381 79.0028 71.0519 78.6494 71.5311C78.2318 72.0103 77.5892 71.9464 76.8502 71.3714ZM77.8141 70.0615C77.2037 69.5823 76.7217 69.5184 76.4968 69.774C76.2398 70.0935 76.4968 70.5407 77.0751 71.02C77.6535 71.4672 78.1354 71.627 78.3924 71.3075C78.6173 71.02 78.4567 70.5727 77.8141 70.0615Z" fill="#006934"/>
<path d="M76.8182 73.0326L76.9468 72.4575L77.2359 72.6173L77.0753 73.3201L76.8504 73.5757L74.6335 71.6269L74.8906 71.3394L76.8182 73.0326Z" fill="#006934"/>
<path d="M73.6053 74.8214C72.8985 74.1186 72.77 73.4477 73.2198 73.0004C73.6374 72.5851 74.28 72.7129 74.9868 73.3838C75.6936 74.0866 75.7579 74.7575 75.3402 75.2048C74.8904 75.6201 74.2479 75.4604 73.6053 74.8214ZM74.6977 73.6394C74.1515 73.0962 73.6696 72.9685 73.4125 73.224C73.1234 73.5116 73.3162 73.9908 73.8623 74.5339C74.3764 75.0451 74.8583 75.2687 75.1475 74.9492C75.4045 74.6936 75.276 74.2144 74.6977 73.6394Z" fill="#006934"/>
<path d="M73.3484 76.4829L73.5733 75.9398L73.8303 76.1315L73.5733 76.8024L73.3163 77.026L71.3564 74.8216L71.6456 74.566L73.3484 76.4829Z" fill="#006934"/>
<path d="M69.9106 77.8566C69.3002 77.0579 69.2359 76.387 69.75 76.0036C70.1998 75.6522 70.8424 75.8438 71.4528 76.6106C72.0632 77.3773 72.0632 78.0802 71.5813 78.4636C71.1315 78.815 70.4889 78.5914 69.9106 77.8566ZM71.1636 76.8342C70.6817 76.2272 70.2319 76.0355 69.9428 76.2592C69.6215 76.5148 69.75 76.994 70.2319 77.601C70.6817 78.176 71.1315 78.4316 71.4528 78.176C71.7098 77.9524 71.6455 77.4732 71.1636 76.8342Z" fill="#006934"/>
<path d="M69.4931 79.4542L69.7823 78.9431L70.0072 79.1347L69.6538 79.7737L69.3646 79.9654L67.694 77.5374L68.0153 77.3137L69.4931 79.4542Z" fill="#006934"/>
<path d="M65.9268 80.4126C65.4128 79.55 65.4449 78.8791 66.0232 78.5596C66.5051 78.2721 67.1477 78.5277 67.6296 79.3583C68.1437 80.2209 68.0473 80.8918 67.5332 81.2113C66.9871 81.5308 66.4087 81.2432 65.9268 80.4126ZM67.2762 79.55C66.8907 78.8791 66.4409 78.6555 66.1517 78.8152C65.7983 79.0388 65.8626 79.5181 66.2802 80.189C66.6658 80.796 67.0513 81.1154 67.4047 80.9238C67.6939 80.7321 67.6939 80.2529 67.2762 79.55Z" fill="#006934"/>
<path d="M65.2843 81.9777L65.6377 81.4985L65.8626 81.7221L65.4449 82.3292L65.1558 82.4889L63.8064 79.8692L64.1598 79.6775L65.2843 81.9777Z" fill="#006934"/>
<path d="M61.6218 82.4892C61.2041 81.5627 61.3326 80.9237 61.9431 80.6682C62.4571 80.4445 63.0354 80.764 63.4531 81.6585C63.8708 82.5531 63.678 83.224 63.1318 83.4796C62.5535 83.7032 62.0073 83.3518 61.6218 82.4892ZM63.0997 81.7863C62.7784 81.0835 62.3929 80.7959 62.0716 80.9237C61.6861 81.0835 61.7182 81.5946 62.0073 82.2975C62.2965 82.9684 62.682 83.3198 63.0354 83.1601C63.3567 83.0323 63.421 82.5211 63.0997 81.7863Z" fill="#006934"/>
<path d="M60.8185 83.9587L61.2041 83.5114L61.3968 83.767L60.9149 84.3101L60.5936 84.4379L59.5656 81.6904L59.919 81.5626L60.8185 83.9587Z" fill="#006934"/>
<path d="M57.1236 84.0226C56.8344 83.0641 57.0272 82.4252 57.6697 82.2335C58.2159 82.0738 58.7621 82.4571 59.0512 83.4156C59.3404 84.374 59.0834 85.013 58.5051 85.1727C57.8946 85.3324 57.3806 84.9171 57.1236 84.0226ZM58.6657 83.5114C58.4408 82.7766 58.0874 82.4252 57.734 82.521C57.3484 82.6488 57.2842 83.16 57.5091 83.8628C57.734 84.5657 58.0231 84.9491 58.4408 84.8532C58.7621 84.7574 58.8906 84.2782 58.6657 83.5114Z" fill="#006934"/>
<path d="M56.1278 85.3645L56.5775 84.9811L56.7382 85.2686L56.192 85.7478L55.8707 85.8117L55.196 82.9364L55.5816 82.8406L56.1278 85.3645Z" fill="#006934"/>
<path d="M52.465 84.9809C52.3044 83.9905 52.5614 83.3835 53.204 83.2877C53.7823 83.1918 54.2642 83.671 54.4248 84.6295C54.5855 85.5879 54.2642 86.2269 53.6859 86.3227C53.0433 86.3866 52.5935 85.9074 52.465 84.9809ZM54.0393 84.6614C53.9108 83.8947 53.5895 83.5113 53.2361 83.5752C52.8184 83.6391 52.722 84.1503 52.8506 84.8851C52.9791 85.5879 53.2361 86.0352 53.6538 85.9713C53.975 85.9393 54.1678 85.4601 54.0393 84.6614Z" fill="#006934"/>
<path d="M51.2764 86.1951L51.7583 85.8756L51.8547 86.1632L51.2443 86.5785L50.8909 86.6104L50.5696 83.6712L50.9551 83.6393L51.2764 86.1951Z" fill="#006934"/>
<path d="M47.7101 85.3964C47.6458 84.406 47.9992 83.831 48.6739 83.799C49.2522 83.7671 49.6699 84.2782 49.7342 85.2686C49.7984 86.259 49.3808 86.8341 48.7703 86.8341C48.1278 86.866 47.7422 86.3229 47.7101 85.3964ZM49.3165 85.2686C49.2844 84.5019 49.0273 84.0866 48.6418 84.0866C48.2241 84.1185 48.0635 84.5977 48.0956 85.3325C48.1278 86.0673 48.3527 86.5146 48.7703 86.5146C49.1237 86.5146 49.3486 86.0673 49.3165 85.2686Z" fill="#006934"/>
<path d="M46.3929 86.4505L46.9069 86.1949L46.9712 86.5144L46.3286 86.8338H45.9752L46.0395 83.8947H46.425L46.3929 86.4505Z" fill="#006934"/>
<path d="M63.2601 53.9919C63.2601 58.8479 58.8585 62.0746 52.2401 62.0746H40.2242V32.3951H52.0795C57.8625 32.3951 61.5894 35.2704 61.5894 39.7431C61.5894 43.1935 59.6938 45.7174 56.0955 46.6758C60.8505 47.5065 63.2601 50.1581 63.2601 53.9919ZM42.409 34.344V46.0049H51.2442C56.5132 46.0049 59.5011 43.7366 59.5011 39.9348C59.5011 36.5164 56.5132 34.344 51.9189 34.344H42.409ZM61.0754 53.7682C61.0754 50.0303 57.8304 47.8898 52.2401 47.8898H42.409V60.1258H52.1438C57.6055 60.0939 61.0754 57.5381 61.0754 53.7682Z" fill="#1E1C1C"/>
<path d="M88.2558 50.3179V62.0427H86.1353V50.3818C86.1353 45.941 83.4044 43.5449 79.5169 43.5449C76.5611 43.5449 73.6696 44.9506 71.8705 47.4745V62.0427H69.75V31.0533H71.8705V44.7909C73.766 42.6823 76.6254 41.5642 79.8061 41.5642C84.7859 41.5961 88.2558 44.8228 88.2558 50.3179Z" fill="#1E1C1C"/>
<path d="M114.504 42.1391V62.0745H112.384V59.4228C110.456 61.4356 107.822 62.6176 104.609 62.6176C98.7616 62.6176 94.0709 57.9852 94.0709 52.1388C94.0709 46.2923 98.7616 41.6279 104.609 41.6279C107.822 41.6279 110.456 42.81 112.384 44.8547V42.1391H114.504ZM112.384 56.7073V47.5383C110.585 44.9186 107.918 43.5767 104.834 43.5767C100.015 43.5767 96.2878 47.4105 96.2878 52.1388C96.2878 56.867 100.015 60.6369 104.834 60.6369C107.918 60.6369 110.585 59.327 112.384 56.7073Z" fill="#1E1C1C"/>
<path d="M132.689 41.5642V43.5769C129.251 43.6089 126.328 45.5896 124.56 48.8483V62.0747H122.472V42.1393H124.593V46.0369C126.424 43.2574 129.38 41.5642 132.689 41.5642Z" fill="#1E1C1C"/>
<path d="M156.399 42.1391V62.0745H154.279V59.4228C152.351 61.4356 149.717 62.6176 146.504 62.6176C140.657 62.6176 135.966 57.9852 135.966 52.1388C135.966 46.2923 140.657 41.6279 146.504 41.6279C149.717 41.6279 152.351 42.81 154.279 44.8547V42.1391H156.399ZM154.311 56.7073V47.5383C152.512 44.9186 149.845 43.5767 146.761 43.5767C141.942 43.5767 138.215 47.4105 138.215 52.1388C138.215 56.867 141.942 60.6369 146.761 60.6369C149.813 60.6369 152.512 59.327 154.311 56.7073Z" fill="#1E1C1C"/>
<path d="M176.801 61.9787C175.323 62.426 173.941 62.5857 172.881 62.5857C168.222 62.5857 166.166 60.1896 166.166 54.9502V43.9921H160.447V42.1072H166.166V34.6633H168.319V42.1391H175.965V44.024H168.319V54.9821C168.319 59.0395 169.732 60.6688 173.074 60.6688C174.134 60.6688 175.355 60.3494 176.511 59.966L176.801 61.9787Z" fill="#1E1C1C"/>
<path d="M212.623 47.2189C212.623 55.781 205.684 62.5858 197.073 62.5858C188.463 62.5858 181.523 55.781 181.523 47.2189C181.523 38.6569 188.463 31.8521 197.073 31.8521C205.684 31.8521 212.623 38.6889 212.623 47.2189ZM207.836 47.2189C207.836 41.1489 203.178 36.2289 197.073 36.2289C190.969 36.2289 186.311 41.1489 186.311 47.2189C186.311 53.289 190.969 58.177 197.073 58.177C203.178 58.177 207.836 53.289 207.836 47.2189Z" fill="#F15B25"/>
<path d="M242.824 50.7971H247.707C246.294 57.9215 240.735 62.6178 233.282 62.6178C224.671 62.6178 217.796 56.0685 217.796 47.2189C217.796 38.3055 224.671 31.8521 233.282 31.8521C240.735 31.8521 246.326 36.4845 247.707 43.5769H242.824C241.635 39.0084 238.229 36.197 233.25 36.197C227.145 36.197 222.551 40.7655 222.551 47.187C222.551 53.5446 227.145 58.177 233.25 58.177C238.229 58.2409 241.635 55.4295 242.824 50.7971Z" fill="#2C2C6F"/>
<path d="M265.474 52.043H258.599V62.0746H253.844V32.3951H265.828C272.51 32.3951 277.329 36.2289 277.329 42.2031C277.329 46.6119 274.695 49.8706 270.647 51.2763L279 62.0427H273.217L265.474 52.043ZM258.567 47.6981H265.635C269.619 47.6981 272.671 45.5896 272.671 42.2031C272.671 38.8167 269.651 36.7081 265.635 36.7081H258.567V47.6981Z" fill="#006934"/>
<mask id="mask0_21_9803" style="mask-type:luminance" maskUnits="userSpaceOnUse" x="0" y="0" width="47" height="93">
<path d="M46.7463 0H0V93H46.7463V0Z" fill="white"/>
</mask>
<g mask="url(#mask0_21_9803)">
<path d="M46.7463 93.0324C20.9796 93.0324 0 72.1705 0 46.5484C0 20.9262 20.9796 0.0643311 46.7463 0.0643311C72.513 0.0643311 93.4926 20.9262 93.4926 46.5484C93.4926 72.1705 72.513 93.0324 46.7463 93.0324ZM46.7463 10.1279C26.5378 10.1279 10.1203 26.4532 10.1203 46.5484C10.1203 66.6435 26.5378 82.9688 46.7463 82.9688C66.9549 82.9688 83.3723 66.6435 83.3723 46.5484C83.3723 26.4532 66.9227 10.1279 46.7463 10.1279Z" fill="#F15B25"/>
</g>
</svg>
